<svg id="svg" version="1.1" xmlns="http://www.w3.org/2000/svg" xmlns:xlink="http://www.w3.org/1999/xlink" width="400" height="528.2926829268292" viewBox="0, 0, 400,528.2926829268292"><g id="svgg"><path id="path0" d="M232.125 20.900 C 232.245 21.395,232.723 22.880,233.188 24.200 C 233.653 25.520,234.217 27.950,234.442 29.600 C 234.666 31.250,235.018 33.153,235.225 33.828 C 235.693 35.363,235.719 40.280,235.259 40.563 C 235.072 40.679,234.810 41.995,234.677 43.487 C 234.412 46.473,233.500 50.306,232.588 52.260 C 232.265 52.954,232.000 53.646,232.000 53.800 C 232.000 54.366,228.618 61.042,227.724 62.238 C 227.216 62.919,226.800 63.592,226.800 63.734 C 226.800 64.503,219.407 74.250,217.025 76.621 C 216.571 77.073,215.016 78.693,213.569 80.221 C 208.798 85.260,202.614 90.991,194.818 97.600 C 193.651 98.590,192.494 99.581,192.248 99.803 C 190.987 100.937,184.968 105.775,181.800 108.200 C 179.820 109.715,178.110 111.068,178.000 111.205 C 177.890 111.343,176.133 112.763,174.096 114.362 C 172.058 115.960,169.988 117.605,169.496 118.016 C 166.477 120.535,163.009 123.371,159.836 125.916 C 157.836 127.519,154.599 130.309,152.643 132.116 C 150.687 133.922,148.957 135.452,148.800 135.515 C 148.402 135.673,138.836 145.405,136.946 147.573 C 136.096 148.549,135.010 149.774,134.533 150.296 C 134.056 150.818,132.976 152.270,132.133 153.523 C 131.290 154.775,130.501 155.890,130.381 156.000 C 129.465 156.835,126.591 161.665,125.381 164.400 C 125.041 165.170,124.432 166.520,124.027 167.400 C 123.623 168.280,123.106 169.720,122.878 170.600 C 122.650 171.480,122.280 172.920,122.055 173.800 C 120.340 180.527,120.655 187.146,123.152 196.800 C 124.143 200.633,127.573 208.469,130.068 212.600 C 130.467 213.260,130.920 214.070,131.074 214.400 C 131.401 215.098,137.646 224.503,137.980 224.800 C 138.103 224.910,138.942 225.990,139.842 227.200 C 147.166 237.036,164.463 254.266,177.000 264.213 C 178.100 265.086,179.090 265.896,179.200 266.014 C 179.310 266.131,181.181 267.571,183.359 269.214 C 185.536 270.856,188.326 272.962,189.559 273.893 C 190.791 274.824,192.070 275.710,192.400 275.863 C 192.730 276.015,193.626 276.648,194.391 277.270 C 196.753 279.189,197.334 278.830,195.800 276.400 C 195.250 275.529,194.800 274.703,194.800 274.566 C 194.800 274.428,194.373 273.808,193.851 273.188 C 193.330 272.568,192.221 270.832,191.388 269.330 C 190.554 267.829,189.451 266.091,188.936 265.469 C 188.421 264.847,188.000 264.142,188.000 263.901 C 188.000 263.660,187.757 263.179,187.459 262.831 C 187.162 262.484,186.487 261.390,185.959 260.400 C 185.432 259.410,184.900 258.510,184.778 258.400 C 184.558 258.201,183.549 256.334,181.698 252.702 C 181.166 251.658,180.566 250.703,180.365 250.579 C 180.164 250.454,180.000 250.018,180.000 249.610 C 180.000 249.201,179.848 248.807,179.662 248.733 C 179.360 248.614,174.061 238.096,171.131 231.800 C 170.517 230.480,169.111 227.464,168.007 225.097 C 166.903 222.731,166.000 220.711,166.000 220.609 C 166.000 220.507,165.568 219.473,165.041 218.312 C 160.637 208.618,159.690 205.185,159.828 199.417 C 159.889 196.853,160.109 194.541,160.317 194.278 C 160.525 194.015,160.927 192.810,161.210 191.600 C 162.063 187.961,164.290 183.492,168.316 177.346 C 169.725 175.195,172.780 171.112,173.363 170.600 C 173.614 170.380,174.175 169.738,174.609 169.173 C 178.067 164.683,182.888 159.601,199.060 143.400 C 220.299 122.123,228.719 112.122,236.774 98.600 C 238.701 95.366,242.000 88.592,242.000 87.869 C 242.000 87.599,242.249 87.022,242.554 86.587 C 242.859 86.152,243.289 85.167,243.511 84.398 C 243.732 83.629,244.396 81.380,244.986 79.400 C 247.325 71.552,247.899 60.794,246.427 52.400 C 245.389 46.480,245.326 46.191,244.890 45.326 C 244.689 44.927,244.218 43.481,243.845 42.113 C 243.471 40.745,242.905 39.125,242.585 38.513 C 242.266 37.901,242.004 37.253,242.002 37.073 C 242.000 36.764,238.782 30.086,238.016 28.800 C 237.820 28.470,236.829 26.760,235.815 25.000 C 233.911 21.697,232.681 20.000,232.189 20.000 C 232.034 20.000,232.005 20.405,232.125 20.900 M310.000 107.055 C 305.391 107.472,300.183 108.142,297.400 108.677 C 295.640 109.015,293.300 109.439,292.200 109.618 C 288.188 110.274,273.536 113.913,268.966 115.389 C 268.508 115.537,266.618 116.191,264.766 116.843 C 262.915 117.494,260.857 118.172,260.194 118.350 C 259.530 118.528,258.270 118.990,257.394 119.378 C 256.517 119.765,255.440 120.220,255.000 120.389 C 248.176 123.012,231.370 131.975,230.867 133.260 C 230.793 133.447,230.555 133.600,230.336 133.600 C 229.832 133.600,225.507 136.887,223.368 138.897 C 222.470 139.740,221.390 140.674,220.968 140.972 C 219.870 141.746,215.601 145.999,215.593 146.326 C 215.589 146.477,214.734 147.516,213.693 148.637 C 211.458 151.042,208.865 154.684,207.599 157.200 C 207.100 158.190,206.580 159.090,206.442 159.200 C 206.189 159.403,205.535 160.737,204.089 164.000 C 202.852 166.791,200.885 173.142,200.435 175.800 C 199.701 180.134,199.572 180.984,199.434 182.400 C 199.359 183.170,199.262 183.845,199.220 183.900 C 199.132 184.014,199.113 190.348,199.200 190.500 C 199.232 190.555,199.319 191.230,199.393 192.000 C 200.059 198.899,203.808 208.908,208.020 215.029 C 208.669 215.972,209.200 216.863,209.200 217.009 C 209.200 217.154,210.174 218.652,211.365 220.337 C 212.556 222.021,214.131 224.268,214.865 225.329 C 215.599 226.390,216.783 228.010,217.496 228.929 C 218.209 229.848,218.794 230.810,218.796 231.067 C 218.798 231.323,218.953 231.593,219.140 231.667 C 219.491 231.804,220.961 233.945,222.915 237.163 C 224.672 240.056,227.032 245.211,227.603 247.400 C 227.890 248.500,228.300 249.627,228.515 249.904 C 229.879 251.666,228.138 265.934,226.405 267.200 C 226.254 267.310,225.921 268.012,225.665 268.760 C 224.269 272.840,220.107 278.568,214.500 284.129 C 211.111 287.490,210.179 288.800,211.177 288.800 C 211.848 288.800,220.549 285.957,222.296 285.167 C 223.228 284.745,224.176 284.400,224.401 284.400 C 224.626 284.400,225.123 284.240,225.505 284.045 C 225.887 283.849,227.100 283.235,228.200 282.680 C 234.069 279.719,237.256 277.751,241.200 274.651 C 245.581 271.209,251.229 265.051,253.200 261.570 C 256.124 256.404,256.960 254.536,258.917 248.800 C 259.718 246.452,259.523 233.565,258.639 230.400 C 258.240 228.970,257.872 227.620,257.823 227.400 C 257.663 226.688,256.750 224.715,253.755 218.600 C 251.057 213.095,249.132 209.537,245.960 204.200 C 237.894 190.625,235.149 179.125,238.273 172.000 C 239.839 168.430,241.309 165.879,242.608 164.479 C 243.153 163.890,243.600 163.276,243.600 163.114 C 243.600 162.007,255.019 150.454,261.237 145.269 C 263.347 143.510,265.682 141.514,266.426 140.835 C 267.170 140.156,268.008 139.600,268.289 139.600 C 268.570 139.600,268.800 139.330,268.800 139.000 C 268.800 138.670,269.036 138.400,269.324 138.400 C 269.612 138.400,270.759 137.635,271.873 136.700 C 274.621 134.392,282.683 128.516,289.000 124.216 C 291.860 122.270,294.290 120.564,294.400 120.425 C 294.567 120.215,296.847 118.717,299.612 117.000 C 303.090 114.841,304.171 114.128,304.620 113.700 C 304.907 113.425,305.241 113.200,305.360 113.200 C 305.664 113.200,312.783 108.614,314.000 107.634 L 315.000 106.829 313.200 106.878 C 312.210 106.906,310.770 106.985,310.000 107.055 M130.600 268.622 C 130.380 268.710,127.230 268.864,123.600 268.965 C 113.644 269.243,98.870 270.331,93.200 271.205 C 91.770 271.425,89.790 271.702,88.800 271.820 C 83.880 272.409,78.548 273.337,78.121 273.679 C 77.858 273.890,77.228 274.022,76.721 273.972 C 76.215 273.922,75.530 273.996,75.200 274.137 C 74.870 274.278,73.250 274.667,71.600 275.001 C 67.684 275.793,67.670 275.797,67.345 276.122 C 67.192 276.275,66.644 276.400,66.128 276.400 C 65.612 276.400,64.877 276.566,64.495 276.768 C 64.113 276.971,62.090 277.719,60.000 278.432 C 57.910 279.144,55.930 279.939,55.600 280.198 C 55.270 280.456,54.370 280.908,53.600 281.200 C 52.830 281.492,51.885 282.000,51.500 282.328 C 51.115 282.656,50.797 282.761,50.794 282.562 C 50.791 282.363,50.656 282.395,50.494 282.634 C 50.332 282.873,49.871 283.248,49.470 283.467 C 47.048 284.789,42.657 290.197,42.165 292.462 C 41.281 296.532,41.343 297.288,42.799 300.200 C 43.863 302.329,46.040 305.200,46.591 305.200 C 46.702 305.200,47.633 305.841,48.661 306.625 C 50.605 308.110,57.586 311.600,58.611 311.600 C 58.935 311.600,59.200 311.795,59.200 312.033 C 59.200 312.272,59.425 312.386,59.700 312.287 C 59.975 312.189,60.560 312.295,61.000 312.524 C 61.440 312.753,62.430 313.071,63.200 313.232 C 63.970 313.392,65.590 313.810,66.800 314.160 C 69.900 315.056,76.395 316.392,77.676 316.396 C 78.268 316.398,78.854 316.563,78.977 316.763 C 79.100 316.962,80.146 317.239,81.300 317.379 C 82.455 317.518,84.660 317.839,86.200 318.092 C 87.740 318.344,89.137 318.517,89.304 318.474 C 89.471 318.432,92.531 318.749,96.104 319.179 C 104.140 320.147,106.530 320.302,118.714 320.647 C 124.056 320.798,128.522 321.074,128.637 321.261 C 128.919 321.716,155.736 321.698,156.220 321.242 C 156.429 321.045,161.280 320.784,167.000 320.662 C 179.385 320.398,189.539 319.869,198.000 319.047 C 201.410 318.716,206.810 318.234,210.000 317.977 C 213.190 317.720,216.790 317.336,218.000 317.122 C 219.210 316.909,220.893 316.677,221.740 316.607 C 222.586 316.536,224.054 316.363,225.002 316.221 C 225.949 316.079,227.776 315.884,229.062 315.788 C 231.236 315.627,235.094 315.133,238.400 314.593 C 240.330 314.278,243.994 313.740,247.800 313.213 C 251.472 312.705,254.227 312.230,256.800 311.661 C 257.790 311.442,260.040 311.048,261.800 310.785 C 266.436 310.091,267.994 309.484,271.692 306.931 C 273.512 305.676,275.760 304.133,276.690 303.503 C 277.619 302.873,278.471 302.209,278.583 302.027 C 278.695 301.846,280.635 300.465,282.894 298.958 C 285.152 297.452,287.090 296.105,287.200 295.965 C 287.310 295.826,288.930 294.551,290.800 293.134 C 292.670 291.716,294.888 289.936,295.730 289.178 C 296.571 288.420,297.336 287.845,297.430 287.900 C 297.706 288.062,299.200 286.438,299.200 285.975 C 299.200 285.486,297.307 285.699,291.600 286.830 C 289.510 287.244,287.170 287.651,286.400 287.735 C 281.982 288.214,277.280 288.928,276.481 289.241 C 275.976 289.438,274.896 289.600,274.081 289.599 C 273.267 289.599,271.160 289.771,269.400 289.982 C 260.655 291.029,250.814 292.022,245.600 292.384 C 242.410 292.606,236.380 293.058,232.200 293.389 C 205.666 295.492,158.714 296.524,136.400 295.496 C 126.891 295.058,116.792 294.428,115.400 294.186 C 114.740 294.071,113.390 293.896,112.400 293.796 C 106.317 293.181,99.994 291.511,98.300 290.071 C 97.554 289.437,97.331 287.600,98.000 287.600 C 98.220 287.600,98.400 287.333,98.400 287.006 C 98.400 284.813,108.949 279.262,120.200 275.533 C 121.520 275.095,122.960 274.596,123.400 274.422 C 125.084 273.758,133.117 271.469,135.600 270.945 C 137.030 270.643,138.560 270.225,139.000 270.015 C 139.440 269.805,140.236 269.581,140.769 269.517 C 141.301 269.452,141.811 269.175,141.902 268.900 C 142.058 268.425,131.735 268.171,130.600 268.622 M332.600 268.824 C 331.500 268.995,329.880 269.312,329.000 269.528 C 325.477 270.394,323.366 270.858,322.700 270.913 C 322.315 270.945,322.000 271.098,322.000 271.254 C 322.000 271.409,321.055 271.845,319.900 272.223 C 316.351 273.384,306.000 279.109,306.000 279.912 C 306.000 280.071,309.735 280.200,314.300 280.200 C 318.865 280.200,322.960 280.362,323.400 280.560 C 323.840 280.758,324.560 280.988,325.000 281.071 C 327.888 281.617,334.533 284.731,336.776 286.591 C 340.895 290.006,343.969 293.739,345.180 296.800 C 345.485 297.570,345.871 298.383,346.039 298.607 C 348.328 301.664,346.825 314.648,343.216 323.000 C 341.457 327.069,340.993 327.991,340.700 327.995 C 340.535 327.998,340.400 328.190,340.400 328.422 C 340.400 330.240,327.408 348.074,326.641 347.308 C 326.509 347.175,326.398 347.322,326.396 347.633 C 326.387 348.811,314.269 360.232,305.775 367.068 C 304.909 367.765,303.177 369.160,301.927 370.168 C 300.677 371.175,299.533 372.000,299.385 372.000 C 299.236 372.000,298.369 372.575,297.458 373.277 C 296.546 373.980,295.722 374.613,295.627 374.684 C 294.617 375.438,296.802 375.521,300.035 374.851 C 302.106 374.423,305.420 373.757,307.400 373.371 C 309.380 372.986,311.180 372.543,311.400 372.388 C 311.620 372.232,312.790 371.877,314.000 371.599 C 315.210 371.320,317.100 370.778,318.200 370.394 C 319.300 370.010,321.280 369.380,322.600 368.993 C 323.920 368.606,325.217 368.119,325.482 367.911 C 325.748 367.702,326.153 367.647,326.382 367.789 C 326.612 367.931,326.800 367.876,326.800 367.667 C 326.800 367.458,327.288 367.164,327.885 367.014 C 329.435 366.625,338.568 362.280,342.488 360.067 C 345.309 358.474,353.600 352.784,355.200 351.343 C 366.195 341.437,372.810 330.870,374.820 320.000 C 375.085 318.570,375.393 317.130,375.506 316.800 C 376.440 314.057,376.431 300.396,375.493 297.600 C 375.382 297.270,375.089 296.010,374.842 294.800 C 372.898 285.282,365.979 276.721,356.381 271.959 C 350.438 269.010,340.130 267.652,332.600 268.824 M114.000 323.860 C 113.450 323.943,111.830 324.289,110.400 324.629 C 108.970 324.969,106.990 325.438,106.000 325.671 C 98.495 327.438,82.400 337.080,82.400 339.811 C 82.400 339.895,81.946 340.633,81.391 341.451 C 76.627 348.471,80.401 354.714,93.052 360.739 C 94.400 361.381,96.200 362.131,97.052 362.405 C 97.903 362.680,98.825 363.083,99.100 363.301 C 99.375 363.519,99.600 363.565,99.600 363.403 C 99.600 363.241,100.005 363.365,100.500 363.680 C 100.995 363.994,102.480 364.499,103.800 364.802 C 105.120 365.105,106.290 365.463,106.400 365.598 C 106.570 365.805,113.363 367.489,115.200 367.780 C 115.530 367.832,116.520 368.061,117.400 368.290 C 118.280 368.518,120.350 368.919,122.000 369.181 C 123.650 369.443,126.416 369.918,128.147 370.236 C 131.390 370.833,135.889 371.373,143.200 372.041 C 145.510 372.252,148.120 372.518,149.000 372.632 C 158.327 373.836,195.961 373.683,201.400 372.418 C 202.280 372.213,204.800 371.935,207.000 371.800 C 212.551 371.459,219.788 370.661,222.200 370.124 C 222.640 370.026,224.170 369.795,225.600 369.611 C 230.123 369.029,234.127 368.341,236.400 367.755 C 237.610 367.443,239.770 367.006,241.200 366.784 C 242.630 366.563,244.700 366.133,245.800 365.830 C 246.900 365.528,248.790 365.068,250.000 364.810 C 252.692 364.234,256.900 363.101,262.200 361.523 C 264.400 360.868,266.830 360.156,267.600 359.940 C 268.370 359.725,269.630 359.314,270.400 359.027 C 271.170 358.740,272.520 358.281,273.400 358.006 C 274.280 357.732,275.540 357.274,276.200 356.989 C 276.860 356.704,278.331 356.175,279.469 355.813 C 282.630 354.809,282.724 354.374,280.075 352.998 C 278.824 352.348,277.620 351.678,277.400 351.508 C 276.483 350.803,272.891 348.556,271.788 348.000 C 271.135 347.670,270.351 347.164,270.047 346.876 C 269.744 346.588,268.799 346.050,267.947 345.682 C 267.096 345.313,266.400 344.865,266.400 344.685 C 266.400 344.506,265.815 344.095,265.100 343.772 C 264.385 343.450,262.720 342.475,261.400 341.606 C 260.080 340.738,258.550 339.802,258.000 339.527 C 257.450 339.252,256.452 338.623,255.782 338.129 C 252.750 335.892,251.870 335.864,245.600 337.800 C 238.484 339.997,223.969 342.785,213.400 343.984 C 211.420 344.209,209.080 344.561,208.200 344.768 C 204.675 345.594,182.454 346.798,170.708 346.799 C 159.987 346.800,142.123 345.658,138.200 344.721 C 137.320 344.511,135.542 344.172,134.250 343.968 C 129.403 343.204,127.526 342.801,127.000 342.412 C 126.780 342.249,125.704 341.897,124.609 341.629 C 113.820 338.993,110.183 332.936,115.768 326.903 C 118.803 323.626,118.540 323.175,114.000 323.860 M127.000 375.484 C 125.900 375.561,124.730 375.739,124.400 375.880 C 124.070 376.021,123.290 376.195,122.666 376.266 C 120.903 376.468,116.709 377.616,115.600 378.201 C 115.050 378.491,113.970 379.019,113.200 379.375 C 112.430 379.731,111.440 380.236,111.000 380.498 C 97.368 388.600,93.575 399.391,101.676 407.025 C 105.799 410.911,113.093 414.556,120.000 416.182 C 121.430 416.519,123.500 417.077,124.600 417.423 C 125.700 417.768,127.392 418.145,128.361 418.259 C 129.329 418.373,130.552 418.629,131.077 418.829 C 132.241 419.272,140.351 420.395,144.200 420.646 C 145.740 420.747,148.350 420.998,150.000 421.205 C 161.176 422.604,180.997 422.597,196.400 421.189 C 198.930 420.958,203.070 420.579,205.600 420.347 C 208.130 420.115,212.360 419.591,215.000 419.182 C 217.640 418.772,220.430 418.360,221.200 418.264 C 223.744 417.949,227.787 417.151,228.600 416.805 C 229.040 416.617,230.210 416.363,231.200 416.241 C 233.663 415.936,234.506 415.758,238.200 414.762 C 252.633 410.871,262.012 407.511,269.000 403.725 C 269.660 403.367,270.920 402.719,271.800 402.285 C 273.304 401.542,273.980 400.943,273.994 400.340 C 273.997 400.198,273.238 399.683,272.306 399.198 C 271.375 398.712,269.301 397.434,267.699 396.358 C 266.096 395.281,264.686 394.400,264.566 394.400 C 264.445 394.400,263.757 393.950,263.036 393.400 C 262.314 392.850,261.544 392.400,261.324 392.400 C 261.104 392.400,260.598 392.040,260.200 391.600 C 259.802 391.160,259.248 390.800,258.969 390.800 C 258.690 390.800,257.953 390.380,257.331 389.867 C 256.709 389.354,255.570 388.589,254.800 388.167 C 254.030 387.745,253.310 387.307,253.200 387.194 C 253.008 386.995,251.668 386.131,245.228 382.049 L 242.256 380.166 239.028 381.282 C 237.253 381.895,235.487 382.578,235.105 382.799 C 234.723 383.019,234.106 383.200,233.734 383.200 C 233.361 383.200,232.504 383.370,231.828 383.578 C 231.153 383.785,229.430 384.319,228.000 384.764 C 226.570 385.208,223.870 385.862,222.000 386.216 C 220.130 386.571,218.240 387.010,217.800 387.192 C 217.360 387.374,215.380 387.737,213.400 387.999 C 211.420 388.261,208.450 388.717,206.800 389.013 C 199.836 390.263,191.842 391.164,186.679 391.282 C 185.182 391.316,183.867 391.492,183.755 391.672 C 183.454 392.159,154.102 392.089,153.800 391.600 C 153.664 391.380,152.693 391.200,151.642 391.200 C 142.985 391.200,131.696 387.222,130.275 383.670 C 129.505 381.747,129.992 379.078,131.414 377.423 C 133.318 375.207,132.996 375.065,127.000 375.484 M52.600 402.191 C 52.380 402.261,50.310 402.535,48.000 402.800 C 40.643 403.644,30.095 406.029,28.600 407.186 C 28.380 407.356,27.496 407.723,26.636 408.000 C 18.512 410.619,9.308 417.979,6.415 424.169 C 4.565 428.127,4.474 433.350,6.198 436.655 C 6.526 437.285,6.796 437.980,6.798 438.200 C 6.830 442.979,19.985 453.504,32.840 459.034 C 35.348 460.113,37.510 461.147,37.645 461.332 C 37.779 461.517,38.049 461.657,38.245 461.643 C 38.672 461.613,43.202 462.974,46.800 464.212 C 52.919 466.319,55.682 467.087,61.927 468.418 C 62.876 468.620,63.820 468.889,64.024 469.015 C 64.227 469.141,65.520 469.418,66.897 469.632 C 68.274 469.845,70.300 470.272,71.400 470.579 C 72.500 470.887,74.750 471.343,76.400 471.594 C 78.050 471.845,81.200 472.393,83.400 472.814 C 85.600 473.234,88.300 473.674,89.400 473.793 C 90.500 473.911,93.560 474.353,96.200 474.774 C 98.840 475.195,103.340 475.747,106.200 476.000 C 109.060 476.253,113.650 476.727,116.400 477.055 C 119.150 477.382,124.448 477.816,128.173 478.020 C 131.899 478.223,137.659 478.576,140.973 478.805 C 144.288 479.033,147.450 479.207,148.000 479.191 C 154.091 479.015,163.586 479.255,163.793 479.589 C 164.127 480.129,182.373 480.143,183.788 479.605 C 184.360 479.387,188.556 479.205,193.114 479.200 C 202.951 479.188,217.733 478.364,233.400 476.954 C 234.500 476.855,235.670 476.696,236.000 476.602 C 236.330 476.507,237.500 476.402,238.600 476.368 C 239.700 476.335,241.770 476.155,243.200 475.968 C 244.630 475.782,246.970 475.525,248.399 475.398 C 249.829 475.271,253.339 474.813,256.199 474.380 C 265.611 472.957,267.388 472.701,268.508 472.609 C 269.118 472.558,269.733 472.401,269.875 472.258 C 270.017 472.116,270.654 472.000,271.290 472.000 C 271.925 472.000,273.200 471.832,274.123 471.627 C 275.045 471.421,278.860 470.683,282.600 469.985 C 286.340 469.288,289.967 468.466,290.660 468.159 C 291.354 467.852,292.344 467.597,292.860 467.594 C 293.377 467.591,295.510 467.137,297.600 466.585 C 299.690 466.033,302.129 465.418,303.021 465.218 C 303.912 465.018,305.712 464.489,307.021 464.043 C 308.329 463.598,310.660 462.875,312.200 462.438 C 313.740 462.001,316.530 461.073,318.400 460.375 C 320.270 459.678,322.880 458.707,324.200 458.218 C 325.520 457.728,328.400 456.468,330.600 455.417 C 332.800 454.366,335.005 453.352,335.500 453.163 C 335.995 452.974,336.400 452.635,336.400 452.410 C 336.400 452.184,336.626 452.000,336.902 452.000 C 340.084 452.000,353.031 440.508,355.493 435.498 C 361.196 423.894,358.025 415.310,345.400 408.177 C 339.821 405.025,338.148 404.623,339.479 406.755 C 341.305 409.679,341.110 417.090,339.100 421.135 C 337.118 425.124,327.149 434.400,324.844 434.400 C 324.661 434.400,323.902 434.812,323.156 435.315 C 322.410 435.818,321.170 436.474,320.400 436.774 C 319.630 437.074,317.894 437.832,316.543 438.459 C 315.191 439.087,313.841 439.601,313.543 439.602 C 313.244 439.604,312.499 439.866,311.887 440.185 C 311.275 440.505,309.655 441.068,308.287 441.437 C 306.919 441.807,305.440 442.322,305.000 442.583 C 304.560 442.843,302.760 443.384,301.000 443.785 C 299.240 444.185,297.616 444.656,297.391 444.830 C 297.012 445.124,292.016 446.248,284.200 447.797 C 282.440 448.146,279.290 448.773,277.200 449.190 C 275.110 449.607,271.780 450.152,269.800 450.401 C 267.820 450.650,265.570 450.962,264.800 451.094 C 264.030 451.227,263.246 451.298,263.058 451.253 C 262.870 451.209,262.493 451.357,262.221 451.582 C 261.949 451.808,261.627 451.893,261.505 451.771 C 261.383 451.649,260.229 451.737,258.942 451.967 C 257.654 452.196,255.340 452.476,253.800 452.589 C 252.260 452.703,247.760 453.146,243.800 453.575 C 227.319 455.359,202.439 456.218,178.947 455.815 C 152.169 455.354,144.630 455.008,130.200 453.576 C 125.800 453.139,121.120 452.679,119.800 452.552 C 118.480 452.426,115.420 451.997,113.000 451.599 C 110.580 451.200,106.800 450.663,104.600 450.405 C 102.400 450.147,100.330 449.829,100.000 449.699 C 99.670 449.569,99.040 449.415,98.600 449.357 C 98.160 449.299,96.180 448.956,94.200 448.596 C 92.220 448.235,89.880 447.839,89.000 447.716 C 88.120 447.593,87.220 447.356,87.000 447.189 C 86.780 447.023,85.520 446.678,84.200 446.423 C 81.789 445.958,76.154 444.407,72.800 443.286 C 68.523 441.856,66.743 441.212,65.512 440.649 C 64.790 440.320,63.506 439.770,62.658 439.428 C 49.748 434.219,48.009 424.544,59.000 419.082 C 63.770 416.712,64.901 416.312,71.800 414.559 C 74.858 413.782,89.444 413.490,94.169 414.112 C 96.948 414.477,96.733 414.215,92.000 411.461 C 90.570 410.629,89.130 409.785,88.800 409.585 C 88.470 409.386,87.390 408.791,86.400 408.264 C 82.616 406.251,81.794 405.794,81.600 405.597 C 79.421 403.388,70.601 401.975,59.333 402.032 C 55.850 402.049,52.820 402.121,52.600 402.191 M393.600 449.281 C 389.972 452.384,384.435 456.770,382.610 457.987 C 382.104 458.324,379.867 459.815,377.639 461.300 C 375.412 462.785,373.525 464.000,373.446 464.000 C 373.367 464.000,371.652 464.990,369.636 466.200 C 367.619 467.410,365.779 468.400,365.546 468.400 C 365.314 468.400,364.603 468.770,363.967 469.223 C 362.922 469.968,361.024 470.894,353.888 474.146 C 352.617 474.726,351.492 475.200,351.389 475.200 C 351.286 475.200,350.077 475.717,348.701 476.349 C 346.248 477.477,344.997 478.002,344.200 478.240 C 342.932 478.620,338.100 480.460,337.553 480.772 C 337.197 480.975,336.117 481.339,335.153 481.581 C 334.189 481.823,332.230 482.453,330.800 482.980 C 328.515 483.822,324.799 484.977,321.000 486.024 C 320.340 486.207,318.630 486.718,317.200 487.161 C 314.686 487.940,312.081 488.576,303.200 490.578 C 300.890 491.098,297.920 491.798,296.600 492.134 C 295.280 492.469,293.120 492.859,291.800 493.000 C 290.480 493.142,288.590 493.505,287.600 493.807 C 286.610 494.110,284.180 494.566,282.200 494.821 C 280.220 495.076,276.800 495.613,274.600 496.014 C 272.400 496.415,268.350 496.952,265.600 497.207 C 262.850 497.462,259.520 497.836,258.200 498.038 C 256.880 498.240,254.990 498.483,254.000 498.578 C 245.388 499.404,235.664 500.105,223.000 500.810 C 214.279 501.296,191.048 501.295,182.000 500.808 C 163.819 499.831,154.778 499.169,145.600 498.143 C 144.830 498.057,141.230 497.722,137.600 497.398 C 133.970 497.074,130.100 496.640,129.000 496.433 C 127.021 496.061,123.982 495.642,117.000 494.780 C 115.020 494.535,112.320 494.082,111.000 493.773 C 109.680 493.464,106.890 493.021,104.800 492.788 C 102.710 492.556,99.891 492.109,98.535 491.796 C 97.179 491.483,94.029 490.863,91.535 490.418 C 84.704 489.197,77.665 487.756,75.200 487.073 C 71.529 486.055,68.940 485.804,69.537 486.524 C 69.810 486.853,70.514 487.242,71.103 487.390 C 71.691 487.538,72.970 488.022,73.945 488.466 C 74.920 488.910,76.457 489.519,77.359 489.820 C 80.112 490.736,84.177 492.212,84.600 492.450 C 84.820 492.574,87.700 493.532,91.000 494.580 C 94.300 495.628,98.260 496.908,99.800 497.425 C 101.340 497.942,103.320 498.486,104.200 498.635 C 105.080 498.784,106.160 499.095,106.600 499.327 C 108.216 500.180,130.222 505.441,138.800 507.025 C 150.089 509.110,153.178 509.655,157.800 510.374 C 160.660 510.819,164.800 511.382,167.000 511.624 C 169.200 511.866,172.890 512.322,175.200 512.638 C 177.510 512.953,182.100 513.391,185.400 513.612 C 188.700 513.833,191.797 514.102,192.281 514.210 C 192.766 514.318,196.636 514.502,200.881 514.621 C 205.127 514.739,209.060 515.015,209.623 515.234 C 210.679 515.646,241.183 515.443,247.400 514.983 C 251.387 514.687,251.494 514.683,253.200 514.749 C 256.564 514.879,275.235 512.912,289.200 510.956 C 292.887 510.440,297.523 509.651,301.000 508.947 C 302.540 508.636,306.005 507.946,308.700 507.414 C 311.395 506.882,313.799 506.324,314.042 506.174 C 314.285 506.024,315.114 505.816,315.884 505.712 C 316.654 505.608,318.840 505.077,320.742 504.531 C 322.644 503.985,324.920 503.383,325.800 503.193 C 327.600 502.804,334.063 500.822,336.800 499.819 C 337.790 499.457,339.500 498.881,340.600 498.539 C 341.700 498.198,343.320 497.599,344.200 497.208 C 345.080 496.818,347.474 495.842,349.519 495.040 C 351.565 494.239,353.545 493.417,353.919 493.215 C 354.294 493.012,356.490 491.929,358.800 490.806 C 361.110 489.684,364.080 488.140,365.400 487.376 C 366.720 486.612,368.565 485.594,369.500 485.114 C 370.435 484.634,371.200 484.101,371.200 483.931 C 371.200 483.760,371.785 483.319,372.500 482.950 C 375.615 481.343,384.056 473.765,386.924 470.000 C 387.846 468.790,388.780 467.581,389.000 467.314 C 390.001 466.098,390.287 465.632,391.654 463.000 C 393.836 458.797,395.261 453.707,395.118 450.625 L 395.000 448.083 393.600 449.281 " stroke="none" fill="#fcfcfc" fill-rule="evenodd"></path></g></svg>