<svg id="svg" xmlns="http://www.w3.org/2000/svg" xmlns:xlink="http://www.w3.org/1999/xlink" width="400" height="400" viewBox="0, 0, 400,400" version="1.1"><g id="svgg"><path id="path0" d="M231.034 43.499 C 230.650 43.884,230.769 47.409,231.181 47.821 C 231.390 48.030,231.608 48.889,231.664 49.729 C 231.721 50.569,231.910 51.344,232.084 51.452 C 232.258 51.559,232.406 52.762,232.413 54.124 C 232.427 56.875,232.914 57.813,234.543 58.222 C 236.304 58.663,235.303 58.994,231.300 59.293 C 230.805 59.330,230.400 59.534,230.400 59.747 C 230.400 59.959,230.282 60.015,230.137 59.870 C 229.992 59.725,229.597 59.830,229.260 60.103 C 228.828 60.453,228.730 60.460,228.930 60.127 C 229.281 59.541,227.500 59.663,226.724 60.277 C 226.436 60.505,225.689 60.618,225.065 60.527 C 224.256 60.410,224.015 60.501,224.227 60.843 C 224.419 61.154,224.354 61.219,224.044 61.027 C 223.781 60.864,223.311 60.942,223.000 61.200 C 222.689 61.458,222.236 61.546,221.992 61.395 C 221.749 61.245,221.227 61.414,220.833 61.770 C 220.438 62.127,219.838 62.313,219.498 62.182 C 219.159 62.052,218.762 62.138,218.617 62.373 C 218.472 62.608,218.003 62.800,217.576 62.800 C 217.149 62.800,216.800 62.980,216.800 63.200 C 216.800 63.420,216.665 63.579,216.500 63.553 C 216.335 63.527,216.065 63.549,215.900 63.603 C 215.735 63.656,215.465 63.738,215.300 63.785 C 215.135 63.831,214.730 63.978,214.400 64.111 C 214.070 64.244,213.440 64.419,213.000 64.500 C 212.560 64.581,212.249 64.875,212.310 65.153 C 212.370 65.432,212.227 65.540,211.991 65.395 C 211.755 65.249,210.716 65.539,209.681 66.040 C 208.647 66.540,207.575 66.908,207.300 66.857 C 207.025 66.807,206.800 66.953,206.800 67.182 C 206.800 67.412,206.451 67.600,206.024 67.600 C 205.597 67.600,205.136 67.780,205.000 68.000 C 204.864 68.220,204.303 68.400,203.753 68.400 C 203.188 68.400,202.860 68.574,203.000 68.800 C 203.136 69.020,202.967 69.200,202.624 69.200 C 202.281 69.200,202.000 69.380,202.000 69.600 C 202.000 69.820,201.640 70.000,201.200 70.000 C 200.760 70.000,200.400 70.180,200.400 70.400 C 200.400 70.620,200.157 70.800,199.859 70.800 C 199.562 70.800,198.754 71.340,198.063 72.000 C 197.372 72.660,196.435 73.200,195.980 73.200 C 195.525 73.200,195.264 73.380,195.400 73.600 C 195.622 73.960,195.097 74.173,194.300 74.047 C 194.135 74.021,194.000 74.180,194.000 74.400 C 194.000 74.620,193.796 74.800,193.547 74.800 C 193.298 74.800,192.771 75.172,192.377 75.626 C 191.983 76.081,191.602 76.414,191.530 76.368 C 191.221 76.166,189.600 76.888,189.600 77.227 C 189.600 77.432,189.375 77.600,189.100 77.600 C 188.414 77.601,186.352 79.419,186.674 79.740 C 186.817 79.883,186.661 80.000,186.328 80.000 C 185.995 80.000,185.307 80.360,184.800 80.800 C 184.293 81.240,183.715 81.600,183.515 81.600 C 183.316 81.600,183.264 81.780,183.400 82.000 C 183.536 82.220,183.433 82.400,183.170 82.400 C 182.908 82.400,182.267 82.895,181.747 83.500 C 181.227 84.105,180.801 84.465,180.800 84.300 C 180.800 84.135,180.485 84.279,180.100 84.621 C 179.715 84.962,178.801 85.767,178.070 86.409 C 177.275 87.107,176.857 87.768,177.031 88.051 C 177.199 88.322,177.153 88.418,176.922 88.275 C 176.478 88.001,174.800 89.736,174.800 90.470 C 174.800 90.725,174.692 90.825,174.560 90.693 C 174.427 90.561,173.482 91.262,172.460 92.252 C 171.437 93.241,170.108 94.512,169.508 95.076 C 168.907 95.640,168.513 96.258,168.631 96.451 C 168.750 96.643,168.587 96.800,168.269 96.800 C 167.951 96.800,167.392 97.430,167.027 98.200 C 166.661 98.970,166.188 99.600,165.974 99.600 C 165.284 99.600,162.751 102.495,162.961 103.043 C 163.073 103.335,162.965 103.698,162.721 103.849 C 162.427 104.031,162.389 103.934,162.610 103.562 C 162.794 103.253,162.363 103.613,161.653 104.362 C 160.943 105.112,160.459 105.976,160.577 106.283 C 160.694 106.590,160.628 106.741,160.430 106.619 C 160.231 106.496,159.835 106.924,159.550 107.569 C 159.264 108.214,158.888 108.655,158.715 108.548 C 158.542 108.440,158.400 108.650,158.400 109.012 C 158.400 109.375,158.048 109.971,157.617 110.336 C 157.186 110.701,156.781 111.249,156.717 111.554 C 156.540 112.394,155.054 113.877,154.600 113.667 C 154.380 113.566,154.400 113.700,154.645 113.966 C 154.977 114.327,154.825 114.735,154.045 115.580 C 152.356 117.408,152.000 117.931,152.000 118.583 C 152.000 118.922,151.640 119.560,151.200 120.000 C 150.760 120.440,150.400 120.980,150.400 121.200 C 150.400 121.420,150.220 121.600,150.000 121.600 C 149.780 121.600,149.600 121.960,149.600 122.400 C 149.600 122.840,149.420 123.200,149.200 123.200 C 148.980 123.200,148.800 123.560,148.800 124.000 C 148.800 124.440,148.642 124.800,148.449 124.800 C 148.255 124.800,147.873 125.340,147.600 126.000 C 147.327 126.660,146.945 127.200,146.751 127.200 C 146.558 127.200,146.400 127.639,146.400 128.176 C 146.400 128.713,146.217 129.266,145.993 129.404 C 145.770 129.542,145.708 129.851,145.855 130.089 C 146.005 130.332,145.940 130.410,145.707 130.266 C 145.478 130.125,145.045 130.311,144.745 130.681 C 144.279 131.256,144.284 131.303,144.779 131.005 C 145.097 130.813,144.927 131.261,144.400 132.000 C 143.873 132.739,143.658 133.211,143.921 133.049 C 144.697 132.569,144.471 133.093,143.470 134.093 C 142.959 134.604,142.609 135.226,142.692 135.475 C 142.774 135.723,142.653 136.044,142.421 136.187 C 142.190 136.330,142.000 136.797,142.000 137.224 C 142.000 137.651,141.820 138.000,141.600 138.000 C 141.380 138.000,141.200 138.360,141.200 138.800 C 141.200 139.240,141.065 139.601,140.900 139.603 C 140.735 139.605,140.401 140.010,140.159 140.503 C 139.916 140.996,139.160 142.435,138.480 143.700 C 137.799 144.965,137.351 146.000,137.483 146.000 C 137.616 146.000,137.381 146.391,136.962 146.869 C 136.543 147.347,136.453 147.589,136.762 147.407 C 137.141 147.184,137.231 147.227,137.038 147.538 C 136.881 147.792,136.448 148.014,136.076 148.032 C 135.666 148.051,135.595 148.142,135.896 148.264 C 136.275 148.417,136.256 148.601,135.813 149.044 C 135.495 149.362,135.347 149.917,135.485 150.277 C 135.644 150.691,135.577 150.833,135.303 150.663 C 135.055 150.511,134.640 150.913,134.337 151.598 C 134.044 152.259,133.707 152.800,133.587 152.800 C 133.468 152.800,133.341 153.189,133.305 153.664 C 133.269 154.139,133.096 154.634,132.920 154.764 C 132.744 154.894,132.539 155.360,132.463 155.800 C 132.388 156.240,132.163 156.660,131.963 156.733 C 131.764 156.807,131.600 157.212,131.600 157.633 C 131.600 158.055,131.449 158.400,131.264 158.400 C 130.818 158.400,129.934 160.370,130.193 160.788 C 130.304 160.969,130.126 161.219,129.798 161.346 C 129.469 161.472,129.200 161.851,129.200 162.187 C 129.200 162.524,128.990 162.800,128.733 162.800 C 128.477 162.800,128.379 162.913,128.517 163.051 C 128.655 163.189,128.512 163.796,128.200 164.400 C 127.888 165.004,127.733 165.599,127.856 165.723 C 127.980 165.846,127.702 166.353,127.240 166.849 C 126.778 167.345,126.400 168.131,126.400 168.595 C 126.400 169.060,126.221 169.619,126.002 169.838 C 125.784 170.056,125.564 170.722,125.515 171.318 C 125.466 171.913,125.285 172.400,125.113 172.400 C 124.941 172.400,124.800 172.760,124.800 173.200 C 124.800 173.640,124.620 174.000,124.400 174.000 C 124.180 174.000,124.000 174.360,124.000 174.800 C 124.000 175.240,123.820 175.600,123.600 175.600 C 123.380 175.600,123.200 176.151,123.200 176.824 C 123.200 177.537,123.033 177.944,122.800 177.800 C 122.566 177.655,122.400 178.070,122.400 178.800 C 122.400 179.530,122.234 179.945,122.000 179.800 C 121.773 179.660,121.600 179.996,121.600 180.576 C 121.600 181.139,121.420 181.600,121.200 181.600 C 120.980 181.600,120.800 181.960,120.800 182.400 C 120.800 182.840,120.620 183.200,120.400 183.200 C 120.180 183.200,120.000 183.740,120.000 184.400 C 120.000 185.060,119.820 185.600,119.600 185.600 C 119.380 185.600,119.200 185.960,119.200 186.400 C 119.200 186.840,119.020 187.200,118.800 187.200 C 118.580 187.200,118.400 187.740,118.400 188.400 C 118.400 189.060,118.259 189.600,118.087 189.600 C 117.915 189.600,117.797 190.095,117.827 190.700 C 117.874 191.687,117.350 193.318,116.351 195.295 C 116.158 195.677,116.000 196.542,116.000 197.218 C 116.000 197.894,115.858 198.360,115.685 198.252 C 115.512 198.145,115.331 198.530,115.283 199.106 C 115.235 199.683,114.991 200.282,114.740 200.437 C 114.489 200.592,114.392 201.002,114.525 201.348 C 114.657 201.694,114.484 202.259,114.139 202.604 C 113.770 202.973,113.590 203.634,113.701 204.215 C 113.804 204.757,113.723 205.200,113.521 205.200 C 113.318 205.200,113.256 205.368,113.383 205.572 C 113.509 205.777,113.430 206.058,113.207 206.196 C 112.983 206.334,112.800 206.987,112.800 207.647 C 112.800 208.462,112.650 208.754,112.332 208.558 C 112.013 208.361,111.949 208.491,112.131 208.963 C 112.277 209.345,112.190 210.045,111.936 210.519 C 111.683 210.992,111.445 212.014,111.407 212.790 C 111.370 213.565,111.137 214.576,110.890 215.035 C 110.643 215.495,110.537 216.305,110.655 216.835 C 110.829 217.617,110.784 217.686,110.418 217.200 C 110.057 216.720,109.978 216.879,110.024 218.000 C 110.055 218.770,110.043 219.580,109.996 219.800 C 109.950 220.020,109.947 220.625,109.990 221.145 C 110.046 221.813,109.922 221.999,109.567 221.779 C 109.215 221.562,109.139 221.665,109.315 222.122 C 109.452 222.481,109.405 222.873,109.210 222.994 C 109.015 223.114,108.934 223.649,109.031 224.181 C 109.127 224.713,109.025 225.261,108.803 225.398 C 108.581 225.535,108.400 226.346,108.400 227.200 C 108.400 228.054,108.249 228.846,108.065 228.960 C 107.881 229.073,107.706 229.836,107.675 230.654 C 107.644 231.472,107.435 232.325,107.210 232.550 C 106.984 232.776,106.800 233.734,106.800 234.680 C 106.800 235.626,106.644 236.400,106.453 236.400 C 106.262 236.400,106.096 237.430,106.085 238.689 C 106.073 239.955,105.871 241.043,105.632 241.123 C 105.374 241.209,105.200 242.471,105.200 244.257 C 105.200 245.902,105.049 247.154,104.865 247.040 C 104.681 246.926,104.490 247.947,104.441 249.308 C 104.392 250.669,104.202 251.877,104.020 251.991 C 103.838 252.106,103.695 253.680,103.702 255.489 C 103.710 257.298,103.533 259.008,103.311 259.289 C 102.717 260.038,102.731 262.488,103.327 262.130 C 103.680 261.918,103.678 261.997,103.319 262.442 C 102.503 263.451,102.594 287.435,103.414 287.750 C 103.837 287.912,103.950 287.829,103.762 287.495 C 103.544 287.109,103.601 287.110,104.021 287.500 C 104.624 288.060,223.841 288.251,224.600 287.694 C 225.176 287.271,225.086 286.024,224.451 285.632 C 224.035 285.374,224.025 285.258,224.408 285.131 C 224.794 285.002,224.782 284.832,224.354 284.382 C 224.049 284.062,223.800 283.530,223.800 283.200 C 223.800 282.870,223.600 282.637,223.355 282.682 C 223.084 282.731,222.964 282.293,223.049 281.567 C 223.138 280.799,222.984 280.292,222.619 280.152 C 222.306 280.032,222.148 279.679,222.268 279.367 C 222.388 279.055,222.319 278.800,222.115 278.800 C 221.911 278.800,221.496 277.889,221.193 276.775 C 220.890 275.661,220.497 274.660,220.321 274.551 C 220.144 274.442,220.000 273.913,220.000 273.376 C 220.000 272.839,219.820 272.400,219.600 272.400 C 219.380 272.400,219.200 271.879,219.200 271.243 C 219.200 270.562,218.942 269.987,218.575 269.846 C 218.231 269.714,218.053 269.438,218.180 269.233 C 218.306 269.028,218.243 268.441,218.038 267.930 C 217.228 265.910,217.077 265.379,217.164 264.860 C 217.213 264.563,217.091 264.420,216.892 264.543 C 216.693 264.666,216.569 264.189,216.615 263.483 C 216.671 262.646,216.428 261.940,215.917 261.453 C 215.394 260.955,215.267 260.573,215.534 260.306 C 215.800 260.040,215.675 259.446,215.157 258.523 C 214.730 257.763,214.600 257.276,214.869 257.443 C 215.138 257.609,214.970 257.200,214.496 256.535 C 213.844 255.619,213.747 255.213,214.097 254.863 C 214.448 254.512,214.443 254.400,214.080 254.400 C 213.816 254.400,213.600 253.950,213.600 253.400 C 213.600 252.850,213.458 252.400,213.285 252.400 C 213.016 252.400,212.795 251.245,212.693 249.300 C 212.678 249.025,212.517 248.800,212.333 248.800 C 212.150 248.800,212.000 248.181,212.000 247.424 C 212.000 246.667,211.820 245.936,211.600 245.800 C 211.380 245.664,211.200 244.948,211.200 244.210 C 211.200 243.471,211.009 242.803,210.776 242.725 C 210.543 242.648,210.335 241.996,210.315 241.278 C 210.294 240.559,210.125 239.877,209.939 239.762 C 209.752 239.647,209.600 238.743,209.600 237.753 C 209.600 236.758,209.435 236.055,209.232 236.180 C 209.026 236.307,208.780 235.125,208.675 233.504 C 208.462 230.214,208.211 228.664,207.776 227.961 C 207.577 227.639,207.645 227.580,207.978 227.786 C 208.371 228.030,208.382 227.914,208.028 227.252 C 207.779 226.788,207.552 225.768,207.523 224.987 C 207.493 224.206,207.326 223.478,207.152 223.370 C 206.978 223.263,206.933 222.919,207.053 222.606 C 207.173 222.294,207.144 221.833,206.989 221.582 C 206.833 221.330,206.647 220.287,206.575 219.262 C 206.503 218.238,206.282 216.860,206.083 216.200 C 205.885 215.540,205.758 214.370,205.802 213.600 C 205.846 212.830,205.725 211.774,205.533 211.254 C 205.342 210.734,205.158 209.024,205.126 207.454 C 205.094 205.884,204.903 204.060,204.701 203.400 C 204.500 202.740,204.341 199.809,204.349 196.888 C 204.360 192.849,204.248 191.645,203.882 191.865 C 203.515 192.085,203.509 192.016,203.857 191.577 C 204.158 191.198,204.322 188.663,204.336 184.181 C 204.349 180.198,204.543 176.876,204.803 176.192 C 205.048 175.548,205.220 174.386,205.185 173.611 C 205.050 170.573,205.217 168.363,205.566 168.579 C 205.767 168.703,205.913 168.033,205.891 167.086 C 205.868 166.141,206.011 165.105,206.210 164.785 C 206.408 164.464,206.616 163.752,206.674 163.201 C 206.910 160.928,207.067 160.139,207.387 159.621 C 207.624 159.238,207.574 159.169,207.220 159.387 C 206.943 159.559,207.026 159.227,207.405 158.649 C 207.783 158.072,207.945 157.600,207.766 157.600 C 207.587 157.600,207.652 157.388,207.910 157.130 C 208.271 156.769,208.266 156.517,207.890 156.053 C 207.501 155.572,207.503 155.508,207.900 155.747 C 208.195 155.924,208.418 155.832,208.444 155.524 C 208.468 155.236,208.547 154.207,208.620 153.238 C 208.693 152.269,208.899 151.369,209.078 151.238 C 209.257 151.107,209.464 150.460,209.539 149.800 C 209.614 149.140,209.839 148.540,210.038 148.467 C 210.237 148.393,210.400 147.898,210.400 147.367 C 210.400 146.835,210.580 146.400,210.800 146.400 C 211.020 146.400,211.200 146.051,211.200 145.624 C 211.200 145.197,211.380 144.736,211.600 144.600 C 211.820 144.464,212.000 143.913,212.000 143.376 C 212.000 142.839,212.180 142.400,212.400 142.400 C 212.620 142.400,212.800 141.972,212.800 141.449 C 212.800 140.926,213.066 140.277,213.392 140.007 C 214.199 139.337,215.199 137.260,215.206 136.239 C 215.211 135.535,215.281 135.497,215.641 136.000 C 215.985 136.482,216.031 136.423,215.872 135.700 C 215.764 135.205,215.811 134.800,215.977 134.800 C 216.143 134.800,216.603 134.080,217.000 133.200 C 217.397 132.320,217.893 131.600,218.104 131.600 C 218.314 131.600,218.379 131.323,218.250 130.985 C 218.115 130.635,218.269 130.272,218.607 130.142 C 218.933 130.017,219.200 129.563,219.200 129.134 C 219.200 128.704,219.380 128.464,219.600 128.600 C 219.820 128.736,220.000 128.567,220.000 128.224 C 220.000 127.881,220.162 127.600,220.361 127.600 C 220.559 127.600,220.910 127.060,221.140 126.400 C 221.370 125.740,221.744 125.200,221.972 125.200 C 222.199 125.200,222.496 124.757,222.632 124.216 C 222.893 123.176,224.000 121.969,224.000 122.724 C 224.000 122.956,224.360 123.260,224.800 123.400 C 225.240 123.540,225.600 123.900,225.600 124.200 C 225.600 124.500,225.960 124.860,226.400 125.000 C 226.840 125.140,227.200 125.420,227.200 125.623 C 227.200 125.827,227.757 126.525,228.437 127.175 C 229.193 127.898,229.556 128.547,229.371 128.847 C 229.164 129.182,229.271 129.258,229.714 129.088 C 230.167 128.914,230.293 129.013,230.137 129.420 C 230.002 129.772,230.157 130.000,230.530 130.000 C 230.869 130.000,231.261 130.363,231.402 130.806 C 231.543 131.249,231.825 131.508,232.029 131.382 C 232.233 131.256,232.400 131.352,232.400 131.595 C 232.400 132.195,234.254 134.012,234.558 133.709 C 234.691 133.576,234.800 133.765,234.800 134.130 C 234.800 134.908,237.077 137.200,237.850 137.200 C 238.581 137.200,239.737 135.345,239.373 134.756 C 239.197 134.472,239.246 134.381,239.492 134.533 C 239.889 134.779,241.092 132.522,240.895 131.900 C 240.843 131.735,240.980 131.600,241.200 131.600 C 241.420 131.600,241.600 131.280,241.600 130.888 C 241.600 130.497,241.960 129.917,242.400 129.600 C 242.840 129.283,243.200 128.714,243.200 128.335 C 243.200 127.957,243.380 127.536,243.600 127.400 C 244.170 127.047,244.097 125.580,243.515 125.700 C 243.248 125.755,242.845 125.395,242.620 124.900 C 242.395 124.405,242.073 124.000,241.905 124.000 C 241.737 124.000,241.600 123.671,241.600 123.269 C 241.600 122.449,239.308 118.800,238.794 118.800 C 238.612 118.800,238.345 118.260,238.200 117.600 C 238.055 116.940,237.771 116.400,237.568 116.400 C 237.366 116.400,237.200 116.170,237.200 115.888 C 237.200 115.607,236.840 115.117,236.400 114.800 C 235.960 114.483,235.600 113.997,235.600 113.719 C 235.600 113.151,233.856 112.594,233.250 112.969 C 232.343 113.530,232.437 112.325,233.379 111.309 C 233.941 110.703,234.400 110.071,234.400 109.904 C 234.400 109.737,234.670 109.600,235.000 109.600 C 235.330 109.600,235.600 109.463,235.600 109.295 C 235.600 109.127,236.005 108.805,236.500 108.580 C 236.995 108.355,237.351 107.939,237.290 107.656 C 237.230 107.372,237.360 107.251,237.579 107.387 C 237.798 107.522,238.880 106.726,239.983 105.617 C 241.087 104.507,242.185 103.600,242.423 103.600 C 243.011 103.600,244.000 102.573,244.000 101.962 C 244.000 101.690,244.114 101.581,244.254 101.720 C 244.393 101.860,244.957 101.620,245.508 101.187 C 246.058 100.754,246.732 100.400,247.005 100.400 C 247.278 100.400,247.729 100.127,248.006 99.793 C 248.283 99.459,249.114 98.899,249.852 98.549 C 250.589 98.199,251.094 97.752,250.973 97.556 C 250.852 97.360,251.101 97.200,251.527 97.200 C 251.953 97.200,252.524 96.932,252.796 96.604 C 253.068 96.277,253.423 96.091,253.585 96.191 C 253.747 96.291,254.259 96.019,254.723 95.586 C 255.187 95.154,255.844 94.800,256.183 94.800 C 256.522 94.800,256.800 94.620,256.800 94.400 C 256.800 94.180,257.261 94.000,257.824 94.000 C 258.404 94.000,258.740 93.827,258.600 93.600 C 258.460 93.373,258.796 93.200,259.376 93.200 C 259.939 93.200,260.400 93.020,260.400 92.800 C 260.400 92.580,260.839 92.400,261.376 92.400 C 261.913 92.400,262.464 92.220,262.600 92.000 C 262.736 91.780,263.175 91.600,263.575 91.600 C 263.975 91.600,264.526 91.330,264.800 91.000 C 265.350 90.338,266.192 90.166,265.803 90.795 C 265.663 91.022,265.823 91.089,266.179 90.953 C 266.521 90.822,266.800 90.543,266.800 90.334 C 266.800 90.124,266.965 90.055,267.166 90.179 C 267.367 90.303,267.606 90.181,267.698 89.907 C 267.801 89.596,268.418 89.456,269.332 89.535 C 270.192 89.609,270.800 89.483,270.800 89.231 C 270.800 88.994,271.430 88.800,272.200 88.800 C 273.055 88.800,273.600 88.605,273.600 88.299 C 273.600 87.968,274.243 87.800,275.500 87.802 C 276.545 87.804,277.498 87.674,277.617 87.513 C 277.983 87.021,293.261 87.051,293.566 87.545 C 293.714 87.784,294.492 87.928,295.295 87.864 C 296.098 87.801,296.676 87.877,296.580 88.033 C 296.339 88.422,297.433 88.800,298.799 88.800 C 299.423 88.800,299.993 88.975,300.067 89.188 C 300.140 89.402,300.560 89.645,301.000 89.728 C 301.440 89.812,302.106 90.013,302.481 90.175 C 302.855 90.338,303.355 90.352,303.591 90.206 C 303.827 90.060,303.970 90.171,303.910 90.452 C 303.849 90.733,304.010 90.972,304.267 90.982 C 304.523 90.992,304.868 91.135,305.033 91.300 C 305.198 91.465,305.663 91.600,306.067 91.600 C 306.470 91.600,306.800 91.780,306.800 92.000 C 306.800 92.220,307.120 92.400,307.512 92.400 C 307.903 92.400,308.483 92.760,308.800 93.200 C 309.117 93.640,309.697 94.000,310.088 94.000 C 310.480 94.000,310.800 94.180,310.800 94.400 C 310.800 94.620,311.042 94.800,311.338 94.800 C 311.634 94.800,312.198 95.156,312.591 95.591 C 312.985 96.025,313.443 96.297,313.609 96.194 C 313.775 96.092,314.635 96.816,315.519 97.804 C 317.207 99.689,318.090 99.960,319.376 98.987 C 319.804 98.664,319.937 98.400,319.673 98.400 C 319.409 98.400,319.735 97.833,320.397 97.141 C 321.058 96.448,321.600 95.672,321.600 95.416 C 321.600 95.160,321.967 94.557,322.416 94.075 C 322.864 93.594,323.106 93.200,322.954 93.200 C 322.801 93.200,322.995 92.847,323.385 92.416 C 324.125 91.598,323.958 89.331,323.193 89.804 C 322.982 89.935,322.907 89.785,323.028 89.472 C 323.226 88.956,322.447 88.354,321.400 88.216 C 321.180 88.187,321.038 87.969,321.084 87.731 C 321.167 87.302,318.666 84.800,318.154 84.800 C 318.007 84.800,317.395 84.285,316.793 83.656 C 316.192 83.027,315.227 82.393,314.650 82.248 C 314.072 82.103,313.600 81.784,313.600 81.539 C 313.600 81.049,312.070 79.600,311.553 79.600 C 311.374 79.600,310.637 79.105,309.914 78.500 C 308.259 77.115,306.989 76.400,306.182 76.400 C 305.836 76.400,305.664 76.220,305.800 76.000 C 306.034 75.621,305.862 75.533,304.700 75.440 C 304.019 75.386,303.243 74.668,303.466 74.300 C 303.565 74.135,303.316 74.000,302.912 74.000 C 302.507 74.000,301.917 73.640,301.600 73.200 C 301.283 72.760,300.703 72.400,300.312 72.400 C 299.920 72.400,299.600 72.220,299.600 72.000 C 299.600 71.780,299.319 71.600,298.976 71.600 C 298.633 71.600,298.464 71.420,298.600 71.200 C 298.922 70.680,300.400 70.680,300.400 71.200 C 300.400 71.420,300.760 71.600,301.200 71.600 C 301.640 71.600,302.000 71.780,302.000 72.000 C 302.000 72.220,302.332 72.400,302.738 72.400 C 303.144 72.400,303.787 72.744,304.167 73.164 C 305.088 74.182,307.455 74.126,307.280 73.091 C 307.143 72.279,308.148 71.097,308.617 71.519 C 308.788 71.674,308.809 71.591,308.663 71.336 C 308.337 70.767,308.765 69.531,309.195 69.797 C 309.366 69.903,309.484 69.452,309.457 68.795 C 309.424 67.974,309.203 67.600,308.753 67.600 C 308.393 67.600,307.864 67.318,307.578 66.974 C 307.292 66.629,306.544 66.081,305.916 65.757 C 305.288 65.432,304.880 64.994,305.011 64.783 C 305.217 64.449,304.388 64.212,303.500 64.353 C 303.335 64.379,303.200 64.209,303.200 63.976 C 303.200 63.743,302.992 63.681,302.738 63.838 C 302.451 64.016,302.385 63.948,302.564 63.658 C 302.737 63.379,302.483 63.045,301.926 62.822 C 301.417 62.618,301.157 62.439,301.349 62.425 C 301.974 62.380,300.721 61.200,300.047 61.200 C 299.687 61.200,299.168 60.840,298.893 60.400 C 298.618 59.960,298.060 59.600,297.653 59.600 C 297.245 59.600,296.574 59.150,296.161 58.600 C 294.089 55.841,291.719 59.313,292.858 63.436 C 292.913 63.636,292.818 64.214,292.646 64.720 C 292.197 66.041,293.160 67.280,295.561 68.468 C 297.541 69.448,297.819 70.000,296.333 70.000 C 295.930 70.000,295.600 69.801,295.600 69.557 C 295.600 69.314,295.335 69.216,295.011 69.341 C 294.686 69.465,294.275 69.305,294.096 68.986 C 293.917 68.667,293.296 68.366,292.714 68.318 C 292.133 68.270,291.745 68.088,291.852 67.915 C 291.960 67.742,291.677 67.600,291.224 67.600 C 290.771 67.600,290.400 67.420,290.400 67.200 C 290.400 66.980,290.040 66.800,289.600 66.800 C 289.160 66.800,288.800 66.620,288.800 66.400 C 288.800 66.180,288.440 66.000,288.000 66.000 C 287.560 66.000,287.200 65.820,287.200 65.600 C 287.200 65.380,286.660 65.200,286.000 65.200 C 285.340 65.200,284.800 65.020,284.800 64.800 C 284.800 64.580,284.350 64.400,283.800 64.400 C 283.250 64.400,282.800 64.220,282.800 64.000 C 282.800 63.780,282.530 63.600,282.200 63.600 C 281.870 63.600,281.600 63.420,281.600 63.200 C 281.600 62.980,281.465 62.837,281.300 62.883 C 280.934 62.984,275.558 61.209,275.000 60.802 C 274.606 60.515,271.586 59.964,269.569 59.811 C 269.002 59.768,268.316 59.595,268.044 59.427 C 267.527 59.108,266.193 58.943,261.200 58.583 C 259.550 58.464,257.840 58.198,257.400 57.992 C 256.960 57.787,256.330 57.643,256.000 57.672 C 253.770 57.872,253.399 57.643,253.446 56.100 C 253.472 55.275,253.348 54.506,253.170 54.391 C 252.993 54.276,252.810 53.196,252.764 51.991 C 252.717 50.786,252.537 49.614,252.363 49.387 C 252.188 49.159,252.001 48.079,251.946 46.987 C 251.869 45.469,250.800 42.887,250.800 44.220 C 250.800 44.373,250.554 44.294,250.253 44.044 C 249.952 43.794,248.900 43.620,247.916 43.657 C 246.931 43.694,245.917 43.596,245.663 43.439 C 245.408 43.282,244.989 43.283,244.731 43.443 C 244.195 43.774,239.627 43.760,239.293 43.426 C 239.172 43.306,238.832 43.407,238.537 43.652 C 238.242 43.897,238.000 43.933,238.000 43.732 C 238.000 43.335,231.418 43.115,231.034 43.499 M191.900 50.920 C 191.295 51.159,190.800 51.500,190.800 51.677 C 190.800 51.855,190.530 52.000,190.200 52.000 C 189.870 52.000,189.586 52.315,189.568 52.700 C 189.551 53.085,189.452 53.194,189.349 52.942 C 189.097 52.327,187.556 52.757,186.753 53.667 C 186.397 54.070,185.889 54.400,185.625 54.400 C 185.360 54.400,184.871 54.672,184.539 55.004 C 184.207 55.336,183.742 55.488,183.506 55.342 C 183.251 55.185,183.193 55.264,183.362 55.538 C 183.531 55.812,183.393 56.000,183.024 56.000 C 182.681 56.000,182.400 56.142,182.400 56.315 C 182.400 56.488,182.011 56.659,181.536 56.695 C 181.061 56.731,180.566 56.904,180.436 57.080 C 180.306 57.256,179.660 57.707,179.000 58.082 C 177.779 58.776,177.616 59.652,178.531 60.611 C 178.789 60.881,179.258 61.474,179.573 61.930 C 179.888 62.385,180.293 62.666,180.473 62.555 C 180.653 62.444,180.800 62.644,180.800 63.000 C 180.800 63.356,180.980 63.536,181.200 63.400 C 181.420 63.264,181.600 63.529,181.600 63.989 C 181.600 64.449,181.869 64.928,182.198 65.054 C 182.526 65.181,182.696 65.445,182.574 65.642 C 182.452 65.839,182.650 66.000,183.014 66.000 C 183.377 66.000,183.769 66.360,183.884 66.800 C 183.999 67.240,184.231 67.600,184.400 67.600 C 184.569 67.600,184.801 67.960,184.916 68.399 C 185.031 68.838,185.491 69.333,185.938 69.499 C 186.386 69.665,186.772 69.980,186.795 70.200 C 186.870 70.896,188.169 72.400,188.695 72.400 C 188.973 72.400,189.200 72.580,189.200 72.800 C 189.200 73.020,189.470 73.200,189.800 73.200 C 190.130 73.200,190.403 72.885,190.406 72.500 C 190.411 71.913,190.472 71.895,190.785 72.389 C 191.104 72.893,191.195 72.879,191.421 72.289 C 191.567 71.910,192.026 71.600,192.443 71.600 C 192.859 71.600,193.200 71.420,193.200 71.200 C 193.200 70.980,193.442 70.800,193.738 70.800 C 194.034 70.800,194.602 70.440,195.000 70.000 C 195.398 69.560,196.056 69.200,196.462 69.200 C 196.868 69.200,197.200 69.043,197.200 68.850 C 197.200 68.658,197.718 68.396,198.352 68.270 C 198.985 68.143,199.755 67.805,200.063 67.520 C 201.141 66.517,203.172 65.200,203.640 65.200 C 204.184 65.200,205.169 64.018,205.187 63.341 C 205.194 63.089,203.940 61.623,202.400 60.083 C 200.860 58.543,199.599 57.129,199.598 56.941 C 199.597 56.754,198.787 55.746,197.798 54.701 C 196.809 53.657,196.000 52.905,196.000 53.030 C 196.000 53.155,195.730 52.987,195.400 52.657 C 195.070 52.327,194.800 51.941,194.800 51.800 C 194.800 51.408,193.701 50.394,193.329 50.443 C 193.148 50.466,192.505 50.681,191.900 50.920 M298.800 70.200 C 298.800 70.533,298.444 70.800,298.000 70.800 C 297.015 70.800,296.942 70.126,297.900 69.876 C 298.285 69.775,298.645 69.672,298.700 69.646 C 298.755 69.621,298.800 69.870,298.800 70.200 M142.000 90.213 C 142.000 90.836,139.832 93.200,139.260 93.200 C 139.089 93.200,138.648 93.830,138.281 94.600 C 137.913 95.370,137.417 96.000,137.178 96.000 C 136.725 96.000,135.561 97.013,135.586 97.386 C 135.652 98.385,135.552 98.545,135.200 98.000 C 134.868 97.487,134.811 97.501,134.806 98.097 C 134.803 98.480,134.440 99.018,134.000 99.293 C 133.560 99.568,133.200 100.030,133.200 100.320 C 133.200 100.610,133.020 100.736,132.800 100.600 C 132.580 100.464,132.400 100.663,132.400 101.043 C 132.400 101.423,132.289 101.622,132.152 101.486 C 131.792 101.125,130.800 102.232,130.800 102.995 C 130.800 103.354,130.656 103.558,130.480 103.449 C 130.035 103.175,129.214 104.582,129.537 105.066 C 129.682 105.282,130.565 105.884,131.500 106.403 C 132.435 106.923,133.200 107.477,133.200 107.635 C 133.200 107.792,133.740 108.110,134.400 108.340 C 135.060 108.570,135.600 108.948,135.600 109.179 C 135.600 109.411,135.920 109.600,136.312 109.600 C 136.703 109.600,137.283 109.960,137.600 110.400 C 137.917 110.840,138.457 111.200,138.800 111.200 C 139.143 111.200,139.683 111.560,140.000 112.000 C 140.317 112.440,140.857 112.800,141.200 112.800 C 141.543 112.800,142.083 113.160,142.400 113.600 C 142.717 114.040,143.148 114.400,143.357 114.400 C 143.566 114.400,144.041 114.675,144.413 115.012 C 145.845 116.308,148.800 115.915,148.800 114.429 C 148.800 114.193,148.980 114.000,149.200 114.000 C 149.420 114.000,149.579 113.865,149.553 113.700 C 149.411 112.800,149.644 111.848,149.906 112.256 C 150.119 112.586,150.342 112.558,150.716 112.156 C 150.999 111.850,151.118 111.600,150.980 111.600 C 150.842 111.600,151.279 111.015,151.950 110.300 C 156.681 105.263,158.044 103.594,157.778 103.164 C 157.654 102.964,157.756 102.800,158.005 102.800 C 158.634 102.800,159.600 101.771,159.600 101.101 C 159.600 100.493,157.834 98.800,157.200 98.800 C 156.984 98.800,156.582 98.440,156.307 98.000 C 156.032 97.560,155.420 97.200,154.947 97.200 C 154.473 97.200,153.978 96.919,153.846 96.575 C 153.711 96.225,153.401 96.076,153.141 96.236 C 152.858 96.411,152.784 96.349,152.952 96.077 C 153.116 95.813,152.610 95.288,151.714 94.792 C 150.881 94.331,149.300 93.423,148.200 92.775 C 147.100 92.126,145.930 91.474,145.600 91.326 C 145.270 91.177,144.709 90.728,144.353 90.328 C 143.560 89.435,142.000 89.359,142.000 90.213 M291.619 92.780 C 291.300 92.982,290.885 93.053,290.698 92.937 C 290.511 92.821,290.391 94.353,290.431 96.341 C 290.486 99.059,290.646 100.009,291.077 100.174 C 291.393 100.295,291.549 100.558,291.426 100.759 C 291.302 100.959,292.055 101.211,293.100 101.318 C 294.145 101.425,295.495 101.598,296.100 101.702 C 296.705 101.805,297.200 101.713,297.200 101.496 C 297.200 101.242,297.378 101.246,297.700 101.505 C 298.723 102.330,303.913 102.104,304.193 101.223 C 304.915 98.948,304.315 94.735,303.305 94.988 C 302.744 95.129,302.431 95.074,302.564 94.858 C 302.691 94.652,302.526 94.381,302.198 94.254 C 301.869 94.128,301.597 94.244,301.594 94.513 C 301.590 94.826,301.455 94.790,301.216 94.412 C 301.011 94.088,300.715 93.951,300.559 94.108 C 300.402 94.265,299.997 94.170,299.660 93.897 C 299.163 93.494,299.107 93.501,299.367 93.933 C 299.620 94.353,299.445 94.343,298.544 93.888 C 297.915 93.570,297.191 93.385,296.937 93.476 C 296.682 93.567,296.356 93.453,296.213 93.221 C 296.070 92.990,295.593 92.800,295.153 92.800 C 294.713 92.800,294.459 92.972,294.590 93.183 C 294.720 93.394,294.325 93.305,293.713 92.986 C 292.408 92.305,292.375 92.301,291.619 92.780 M263.426 95.157 C 263.276 95.401,262.544 95.600,261.800 95.600 C 261.056 95.600,260.336 95.780,260.200 96.000 C 260.064 96.220,259.423 96.400,258.776 96.400 C 258.129 96.400,257.600 96.580,257.600 96.800 C 257.600 97.020,256.895 97.200,256.033 97.200 C 255.172 97.200,254.399 97.403,254.317 97.650 C 254.234 97.898,253.709 98.100,253.150 98.100 C 252.297 98.100,252.133 98.285,252.133 99.250 C 252.133 99.883,252.283 100.400,252.467 100.400 C 252.650 100.400,252.800 100.662,252.800 100.981 C 252.800 101.916,253.686 103.594,254.058 103.364 C 254.379 103.166,254.572 103.773,254.432 104.545 C 254.398 104.735,254.692 105.125,255.085 105.413 C 255.478 105.700,255.822 106.130,255.850 106.368 C 255.878 106.605,255.923 107.081,255.950 107.424 C 255.978 107.767,256.180 107.936,256.400 107.800 C 256.620 107.664,256.800 107.948,256.800 108.432 C 256.800 110.003,259.241 111.113,259.754 109.775 C 259.886 109.431,260.167 109.256,260.377 109.386 C 260.588 109.516,260.958 109.252,261.200 108.800 C 261.442 108.348,261.816 108.086,262.030 108.219 C 262.244 108.351,262.370 108.311,262.310 108.130 C 262.249 107.948,262.297 107.800,262.415 107.800 C 262.533 107.800,263.253 107.216,264.015 106.502 C 264.777 105.788,265.585 105.203,265.811 105.202 C 266.667 105.198,267.477 103.680,267.477 102.082 C 267.477 101.173,267.325 100.523,267.138 100.638 C 266.952 100.753,266.800 100.243,266.800 99.504 C 266.800 98.765,266.575 97.918,266.300 97.621 C 265.900 97.190,265.900 97.139,266.301 97.366 C 266.655 97.565,266.757 97.377,266.646 96.724 C 266.561 96.216,266.277 95.849,266.016 95.910 C 265.754 95.970,265.655 95.834,265.796 95.607 C 265.936 95.380,265.735 95.073,265.349 94.925 C 264.927 94.763,264.579 94.862,264.476 95.173 C 264.342 95.574,264.235 95.580,264.002 95.203 C 263.786 94.854,263.622 94.841,263.426 95.157 M230.871 114.738 C 230.392 115.154,230.000 115.708,230.000 115.971 C 230.000 116.233,229.833 116.344,229.629 116.218 C 229.425 116.092,229.138 116.365,228.992 116.824 C 228.846 117.284,228.627 117.561,228.506 117.439 C 228.244 117.177,230.064 114.407,230.500 114.403 C 230.665 114.401,230.800 114.094,230.800 113.720 C 230.800 113.198,230.910 113.150,231.271 113.511 C 231.633 113.873,231.540 114.158,230.871 114.738 M101.714 150.358 C 101.334 150.974,101.334 151.186,101.714 151.341 C 102.030 151.470,102.060 151.655,101.800 151.870 C 101.392 152.206,101.111 153.003,101.082 153.900 C 101.074 154.175,100.917 154.400,100.733 154.400 C 100.550 154.400,100.399 154.715,100.399 155.100 C 100.398 155.485,100.038 156.389,99.599 157.110 C 99.159 157.830,98.800 158.775,98.800 159.210 C 98.800 159.644,98.598 160.000,98.351 160.000 C 98.058 160.000,98.093 160.236,98.451 160.677 C 98.753 161.049,98.813 161.242,98.585 161.106 C 98.357 160.969,97.940 161.430,97.659 162.129 C 97.378 162.828,96.979 163.713,96.774 164.095 C 96.568 164.477,96.400 165.062,96.400 165.395 C 96.400 165.728,96.220 166.000,96.000 166.000 C 95.780 166.000,95.600 166.372,95.600 166.826 C 95.600 167.281,95.402 168.022,95.160 168.475 C 94.840 169.072,94.840 169.222,95.160 169.025 C 95.402 168.875,95.600 168.943,95.600 169.176 C 95.600 169.409,95.398 169.600,95.151 169.600 C 94.841 169.600,94.856 169.785,95.200 170.200 C 95.474 170.530,96.216 170.800,96.849 170.800 C 97.482 170.800,98.000 170.967,98.000 171.171 C 98.000 171.375,98.525 171.475,99.166 171.394 C 99.920 171.299,100.411 171.451,100.554 171.823 C 100.675 172.140,101.201 172.400,101.721 172.400 C 102.241 172.400,102.802 172.535,102.968 172.700 C 103.134 172.865,103.749 173.005,104.335 173.012 C 104.956 173.019,105.358 173.228,105.300 173.512 C 105.245 173.780,105.335 173.970,105.500 173.934 C 105.955 173.835,108.110 174.400,108.895 174.824 C 109.277 175.031,110.322 175.200,111.218 175.200 C 112.202 175.200,112.749 175.358,112.600 175.600 C 112.453 175.838,112.929 176.000,113.776 176.000 C 114.559 176.000,115.200 176.180,115.200 176.400 C 115.200 176.620,115.901 176.800,116.757 176.800 C 118.420 176.800,118.802 176.374,119.001 174.297 C 119.060 173.690,119.324 172.933,119.588 172.614 C 119.853 172.296,119.965 171.868,119.839 171.663 C 119.712 171.458,119.877 171.068,120.204 170.796 C 120.532 170.524,120.800 169.904,120.800 169.418 C 120.800 168.931,120.925 168.409,121.077 168.256 C 121.229 168.104,121.414 167.587,121.487 167.107 C 121.560 166.627,121.770 166.137,121.952 166.017 C 122.280 165.803,122.998 162.884,122.867 162.300 C 122.830 162.135,123.010 162.000,123.267 162.000 C 123.523 162.000,123.615 161.882,123.470 161.737 C 123.325 161.592,123.417 161.221,123.674 160.911 C 124.439 159.989,124.562 157.452,123.828 157.734 C 123.495 157.862,122.961 157.704,122.640 157.383 C 122.319 157.062,121.674 156.800,121.205 156.800 C 120.736 156.800,120.464 156.620,120.600 156.400 C 120.744 156.167,120.337 156.000,119.624 156.000 C 118.951 156.000,118.400 155.820,118.400 155.600 C 118.400 155.380,117.939 155.200,117.376 155.200 C 116.796 155.200,116.460 155.027,116.600 154.800 C 116.747 154.561,116.263 154.400,115.400 154.400 C 114.462 154.400,114.047 154.247,114.221 153.966 C 114.391 153.690,114.146 153.581,113.544 153.666 C 112.955 153.750,112.284 153.464,111.760 152.907 C 111.298 152.415,110.818 152.115,110.693 152.241 C 110.567 152.366,109.822 152.163,109.036 151.790 C 108.250 151.417,107.344 151.213,107.024 151.336 C 106.613 151.493,106.514 151.368,106.688 150.914 C 106.833 150.538,106.771 150.371,106.539 150.514 C 106.321 150.649,105.706 150.542,105.171 150.277 C 103.538 149.467,102.247 149.497,101.714 150.358 M215.400 150.400 C 215.260 150.840,214.978 151.200,214.773 151.200 C 214.568 151.200,214.400 151.560,214.400 152.000 C 214.400 152.440,214.220 152.800,214.000 152.800 C 213.780 152.800,213.600 153.160,213.600 153.600 C 213.600 154.040,213.420 154.400,213.200 154.400 C 212.980 154.400,212.800 154.664,212.800 154.988 C 212.800 155.690,211.270 158.709,210.752 159.030 C 210.551 159.154,210.491 159.423,210.617 159.628 C 210.744 159.832,210.657 160.000,210.424 160.000 C 210.191 160.000,210.000 160.191,210.000 160.424 C 210.000 160.657,210.225 160.731,210.500 160.589 C 210.775 160.447,210.580 160.674,210.066 161.093 C 208.983 161.976,209.037 163.132,210.200 163.991 C 211.624 165.044,212.480 165.775,213.840 167.100 C 214.573 167.815,215.287 168.400,215.426 168.400 C 215.565 168.400,216.165 168.920,216.758 169.555 C 217.351 170.190,218.153 170.775,218.540 170.855 C 218.926 170.935,219.246 171.180,219.250 171.400 C 219.261 172.002,220.461 173.209,220.825 172.985 C 220.999 172.877,221.257 173.151,221.398 173.594 C 221.539 174.037,221.962 174.400,222.339 174.400 C 222.715 174.400,223.283 174.760,223.600 175.200 C 224.895 176.996,226.700 175.833,226.881 173.086 C 226.946 172.091,227.135 171.360,227.300 171.462 C 227.465 171.564,227.600 171.097,227.600 170.424 C 227.600 169.751,227.780 169.200,228.000 169.200 C 228.220 169.200,228.400 168.480,228.400 167.600 C 228.400 166.720,228.562 166.000,228.760 166.000 C 228.958 166.000,229.120 165.347,229.120 164.548 C 229.120 163.750,229.279 162.985,229.473 162.848 C 230.587 162.066,228.966 158.403,227.505 158.400 C 227.228 158.400,226.107 157.562,225.047 156.563 C 224.792 156.323,224.177 155.909,223.681 155.643 C 223.173 155.372,222.899 154.964,223.054 154.712 C 223.235 154.420,223.099 154.353,222.666 154.519 C 222.231 154.686,222.000 154.571,222.000 154.187 C 222.000 153.852,221.629 153.600,221.133 153.600 C 220.657 153.600,220.378 153.489,220.514 153.352 C 220.885 152.982,219.758 152.000,218.962 152.000 C 218.580 152.000,218.378 151.889,218.514 151.752 C 218.798 151.469,218.165 150.825,216.890 150.100 C 215.745 149.449,215.699 149.458,215.400 150.400 M209.200 192.024 C 209.200 192.477,209.020 192.736,208.800 192.600 C 208.207 192.234,208.301 196.133,208.900 196.779 C 209.300 197.210,209.300 197.261,208.900 197.035 C 208.512 196.816,208.400 197.874,208.400 201.776 C 208.400 204.859,208.245 206.800,208.000 206.800 C 207.780 206.800,207.600 206.988,207.600 207.218 C 207.600 207.863,209.487 209.600,210.187 209.600 C 210.875 209.600,212.455 210.400,212.855 210.951 C 212.996 211.144,213.296 211.188,213.523 211.048 C 213.750 210.907,214.207 211.064,214.539 211.396 C 214.871 211.728,215.616 212.000,216.195 212.000 C 216.795 212.000,217.141 212.172,217.000 212.400 C 216.864 212.620,217.113 212.800,217.553 212.800 C 217.993 212.800,218.464 212.980,218.600 213.200 C 218.736 213.420,219.207 213.600,219.647 213.600 C 220.087 213.600,220.350 213.758,220.230 213.951 C 220.049 214.245,221.311 214.711,223.000 214.974 C 223.220 215.008,223.340 215.298,223.267 215.618 C 223.193 215.938,223.261 216.072,223.417 215.916 C 223.574 215.760,224.204 215.892,224.819 216.210 C 225.684 216.657,225.983 216.676,226.137 216.294 C 226.294 215.906,226.344 215.907,226.368 216.300 C 226.386 216.575,226.837 216.800,227.370 216.800 C 228.378 216.800,228.960 208.193,227.993 207.596 C 227.802 207.477,227.611 205.825,227.569 203.924 C 227.500 200.786,227.424 200.480,226.746 200.610 C 226.336 200.689,226.000 200.572,226.000 200.348 C 226.000 199.525,223.707 198.000,222.467 198.000 C 222.059 198.000,221.392 197.634,220.987 197.186 C 220.582 196.738,220.014 196.462,219.725 196.573 C 219.432 196.686,219.200 196.503,219.200 196.158 C 219.200 195.784,218.925 195.597,218.500 195.682 C 218.115 195.760,217.445 195.497,217.010 195.098 C 216.576 194.699,215.091 193.839,213.710 193.187 C 212.330 192.535,211.200 191.821,211.200 191.601 C 211.200 191.380,210.750 191.200,210.200 191.200 C 209.457 191.200,209.200 191.412,209.200 192.024 M81.600 225.538 C 81.050 225.614,80.340 225.884,80.023 226.138 C 79.578 226.495,79.515 226.486,79.747 226.100 C 79.912 225.825,79.875 225.600,79.664 225.600 C 79.301 225.600,79.188 226.200,78.641 231.000 C 78.515 232.100,78.297 233.720,78.156 234.600 C 78.015 235.480,77.841 237.322,77.768 238.692 C 77.696 240.063,77.442 241.548,77.204 241.992 C 76.793 242.760,76.944 242.982,77.768 242.825 C 77.970 242.786,77.904 243.034,77.620 243.375 C 77.337 243.717,77.198 244.348,77.310 244.779 C 77.423 245.209,77.309 245.646,77.058 245.749 C 76.756 245.873,76.779 245.948,77.124 245.968 C 77.441 245.988,77.523 246.197,77.333 246.500 C 76.658 247.575,76.823 249.584,77.623 250.012 C 78.205 250.324,78.402 250.299,78.406 249.914 C 78.410 249.558,78.503 249.537,78.706 249.844 C 78.877 250.102,80.308 250.300,82.125 250.316 C 83.843 250.331,85.463 250.513,85.725 250.721 C 85.986 250.928,87.454 251.128,88.986 251.165 C 90.519 251.202,91.869 251.376,91.986 251.553 C 92.104 251.730,93.370 251.913,94.800 251.961 C 96.230 252.008,97.571 252.216,97.780 252.423 C 99.342 253.973,101.289 252.116,101.055 249.300 C 100.977 248.365,101.079 247.600,101.280 247.600 C 101.482 247.600,101.536 247.420,101.400 247.200 C 101.264 246.980,101.337 246.800,101.562 246.800 C 101.787 246.800,101.955 246.009,101.936 245.043 C 101.916 244.076,102.046 243.050,102.223 242.762 C 102.401 242.475,102.616 241.064,102.701 239.628 C 102.786 238.191,102.997 236.832,103.171 236.608 C 103.345 236.383,103.513 235.401,103.544 234.424 C 103.575 233.446,103.757 232.546,103.949 232.424 C 104.141 232.301,104.321 231.096,104.350 229.747 C 104.409 226.947,104.250 226.819,100.923 226.981 C 99.866 227.032,98.778 226.903,98.507 226.694 C 98.236 226.485,96.076 226.298,93.707 226.279 C 91.338 226.259,89.310 226.118,89.200 225.966 C 88.974 225.655,83.136 225.326,81.600 225.538 M214.580 249.294 C 214.591 250.012,214.819 250.981,215.086 251.447 C 215.353 251.913,215.463 252.404,215.329 252.538 C 215.195 252.671,215.284 253.019,215.525 253.310 C 215.767 253.601,216.009 254.505,216.064 255.319 C 216.119 256.134,216.307 256.800,216.482 256.800 C 216.657 256.800,216.800 257.595,216.800 258.567 C 216.800 259.538,216.991 260.397,217.224 260.475 C 217.457 260.552,217.665 261.197,217.685 261.908 C 217.705 262.619,217.863 263.200,218.036 263.200 C 218.208 263.200,218.406 263.785,218.475 264.500 L 218.600 265.800 221.600 265.878 C 223.250 265.920,225.196 265.965,225.924 265.978 C 226.652 265.990,227.142 266.170,227.013 266.379 C 226.757 266.793,229.225 266.671,230.700 266.196 C 231.269 266.013,231.600 266.071,231.600 266.353 C 231.600 266.599,231.881 266.800,232.224 266.800 C 232.567 266.800,232.755 266.650,232.641 266.467 C 232.528 266.283,232.689 266.133,233.000 266.133 C 233.311 266.133,233.483 266.265,233.384 266.426 C 233.284 266.587,235.632 266.733,238.602 266.751 L 244.000 266.784 244.000 265.592 C 244.000 264.936,243.820 264.400,243.600 264.400 C 243.380 264.400,243.200 264.040,243.200 263.600 C 243.200 263.160,243.064 262.800,242.898 262.800 C 242.580 262.800,241.932 261.485,241.173 259.300 C 240.917 258.561,240.540 258.114,240.299 258.262 C 240.046 258.419,239.995 258.332,240.173 258.044 C 240.336 257.781,240.170 257.108,239.804 256.550 C 239.438 255.992,239.237 255.280,239.357 254.968 C 239.477 254.655,239.401 254.400,239.187 254.400 C 238.974 254.400,238.800 254.216,238.800 253.992 C 238.800 253.768,238.348 252.868,237.795 251.992 C 237.242 251.116,236.927 250.394,237.095 250.387 C 237.263 250.380,237.130 250.155,236.800 249.887 C 236.470 249.619,236.200 249.130,236.200 248.800 C 236.200 248.284,234.684 248.185,225.380 248.094 L 214.561 247.987 214.580 249.294 M91.200 328.900 L 91.200 356.600 98.500 356.539 L 105.800 356.479 105.911 350.639 C 105.976 347.196,106.181 344.800,106.411 344.800 C 106.625 344.800,106.800 344.999,106.800 345.243 C 106.800 345.486,107.079 345.578,107.421 345.447 C 107.762 345.316,107.945 345.366,107.826 345.557 C 107.584 345.949,111.971 350.595,112.597 350.610 C 112.819 350.615,112.976 350.923,112.947 351.294 C 112.918 351.665,113.008 351.937,113.147 351.899 C 113.478 351.807,116.343 354.724,116.131 354.936 C 116.041 355.025,116.336 355.194,116.785 355.312 C 117.234 355.429,117.500 355.362,117.377 355.163 C 117.254 354.963,117.333 354.800,117.553 354.800 C 117.773 354.800,118.067 354.984,118.206 355.210 C 118.675 355.969,138.262 355.681,139.039 354.903 C 139.638 354.304,139.633 354.213,138.968 353.727 C 138.571 353.437,138.378 353.200,138.538 353.200 C 138.697 353.200,138.417 352.774,137.914 352.253 C 137.411 351.732,136.910 351.354,136.800 351.414 C 136.690 351.473,136.150 350.914,135.600 350.172 C 135.050 349.429,134.364 348.817,134.076 348.811 C 133.788 348.805,133.664 348.620,133.800 348.400 C 133.936 348.180,133.786 348.000,133.466 348.000 C 133.147 348.000,132.778 347.719,132.646 347.375 C 132.514 347.031,132.224 346.861,132.003 346.998 C 131.781 347.135,131.600 346.961,131.600 346.611 C 131.600 346.261,131.331 345.872,131.002 345.746 C 130.674 345.619,130.521 345.327,130.664 345.096 C 130.807 344.865,130.743 344.788,130.522 344.925 C 130.092 345.190,128.400 343.474,128.400 342.773 C 128.400 342.542,128.253 342.444,128.073 342.555 C 127.893 342.666,127.493 342.407,127.185 341.979 C 126.876 341.550,126.383 341.200,126.088 341.200 C 125.794 341.200,125.664 341.020,125.800 340.800 C 125.936 340.580,125.737 340.400,125.357 340.400 C 124.977 340.400,124.787 340.280,124.934 340.132 C 125.081 339.985,124.886 339.504,124.501 339.064 C 124.115 338.623,124.025 338.394,124.300 338.555 C 124.575 338.716,124.800 338.690,124.800 338.498 C 124.800 338.306,125.430 337.902,126.200 337.600 C 126.970 337.298,127.600 336.948,127.600 336.823 C 127.600 336.698,128.141 336.356,128.802 336.063 C 129.464 335.770,129.903 335.366,129.779 335.165 C 129.654 334.964,129.791 334.800,130.081 334.800 C 130.701 334.800,132.120 333.024,132.260 332.073 C 132.313 331.711,132.546 331.351,132.778 331.274 C 133.010 331.197,133.200 330.775,133.200 330.338 C 133.200 329.901,133.462 329.281,133.783 328.960 C 134.104 328.639,134.264 328.112,134.140 327.788 C 134.010 327.450,134.145 327.197,134.457 327.194 C 134.876 327.189,134.863 327.099,134.400 326.800 C 134.000 326.542,133.967 326.410,134.300 326.406 C 134.575 326.403,134.800 326.130,134.800 325.800 C 134.800 325.470,135.025 325.197,135.300 325.194 C 135.668 325.189,135.657 325.097,135.257 324.844 C 134.925 324.633,134.869 324.404,135.114 324.253 C 135.821 323.816,135.517 315.379,134.800 315.506 C 134.385 315.579,134.439 315.425,134.976 315.006 C 135.582 314.534,135.618 314.400,135.141 314.400 C 134.700 314.400,134.551 314.036,134.610 313.100 C 134.655 312.385,134.551 311.708,134.378 311.596 C 134.205 311.484,134.005 311.134,133.932 310.818 C 133.859 310.503,133.215 309.643,132.500 308.909 C 131.785 308.174,131.200 307.399,131.200 307.187 C 131.200 306.974,130.970 306.800,130.688 306.800 C 130.407 306.800,129.917 306.440,129.600 306.000 C 129.283 305.560,128.829 305.200,128.591 305.200 C 127.925 305.200,126.007 304.237,126.003 303.900 C 126.001 303.735,125.640 303.600,125.200 303.600 C 124.760 303.600,124.400 303.409,124.400 303.175 C 124.400 302.941,124.085 302.782,123.700 302.821 C 122.206 302.973,121.164 302.782,121.400 302.400 C 121.613 302.055,117.819 301.747,116.100 301.970 C 115.825 302.006,115.600 301.847,115.600 301.618 C 115.600 301.337,111.608 301.200,103.400 301.200 L 91.200 301.200 91.200 328.900 M160.910 301.650 C 160.663 301.897,159.457 302.100,158.230 302.100 C 157.004 302.100,156.000 302.257,156.000 302.450 C 156.000 302.643,155.561 302.800,155.024 302.800 C 154.487 302.800,153.936 302.980,153.800 303.200 C 153.664 303.420,153.243 303.600,152.865 303.600 C 152.486 303.600,151.917 303.960,151.600 304.400 C 151.283 304.840,150.883 305.200,150.712 305.200 C 150.140 305.200,148.767 306.824,149.009 307.215 C 149.140 307.427,148.984 307.600,148.663 307.600 C 148.095 307.600,147.025 309.696,147.081 310.696 C 147.097 310.968,146.970 311.105,146.798 310.999 C 146.094 310.564,145.899 314.751,145.735 333.772 C 145.567 353.254,145.765 357.275,146.810 355.584 C 147.019 355.246,147.177 355.238,147.374 355.557 C 147.556 355.853,149.902 356.000,154.424 356.000 L 161.200 356.000 161.200 351.200 L 161.200 346.400 167.600 346.400 L 174.000 346.400 174.000 350.456 C 174.000 353.844,174.115 354.602,174.700 355.057 C 175.351 355.564,175.344 355.585,174.600 355.363 C 173.948 355.169,173.911 355.204,174.400 355.556 C 174.778 355.828,177.221 355.959,181.000 355.911 L 187.000 355.834 181.200 355.600 L 175.400 355.366 181.524 355.283 C 186.333 355.218,187.583 355.307,187.347 355.700 C 187.143 356.040,187.263 356.024,187.723 355.651 C 188.095 355.349,188.400 355.221,188.400 355.367 C 188.400 355.512,188.663 355.399,188.984 355.116 C 189.723 354.464,189.861 312.554,189.125 312.308 C 188.891 312.230,188.700 311.679,188.700 311.083 C 188.700 310.443,188.480 310.000,188.163 310.000 C 187.845 310.000,187.721 309.750,187.859 309.389 C 188.103 308.754,186.332 306.800,185.513 306.800 C 185.267 306.800,185.176 306.691,185.309 306.558 C 185.442 306.424,185.121 305.884,184.594 305.358 C 183.554 304.317,183.003 304.105,183.407 304.900 C 183.547 305.175,183.295 304.985,182.849 304.478 C 182.402 303.971,181.803 303.588,181.518 303.626 C 180.374 303.778,179.566 303.578,179.800 303.200 C 179.944 302.967,179.537 302.800,178.824 302.800 C 178.151 302.800,177.600 302.658,177.600 302.485 C 177.600 302.311,176.213 302.118,174.517 302.054 C 172.822 301.991,171.126 301.775,170.750 301.573 C 170.362 301.365,170.007 301.359,169.932 301.558 C 169.859 301.754,168.468 301.779,166.800 301.615 C 164.929 301.431,163.605 301.472,163.283 301.723 C 162.930 301.998,162.619 301.979,162.303 301.663 C 161.725 301.085,161.477 301.083,160.910 301.650 M202.137 301.780 C 202.284 302.163,202.167 302.285,201.791 302.141 C 201.000 301.838,200.913 354.065,201.703 354.718 C 202.237 355.159,214.868 355.399,216.464 354.998 L 217.400 354.764 217.318 328.372 C 217.273 313.857,217.127 301.806,216.994 301.591 C 216.564 300.895,201.869 301.082,202.137 301.780 M290.698 301.706 C 290.624 301.927,289.588 302.086,288.396 302.059 C 286.359 302.013,284.299 302.444,282.705 303.249 C 282.323 303.442,281.728 303.600,281.382 303.600 C 281.036 303.600,280.864 303.780,281.000 304.000 C 281.140 304.227,280.804 304.400,280.224 304.400 C 279.661 304.400,279.200 304.580,279.200 304.800 C 279.200 305.020,279.011 305.200,278.780 305.200 C 278.195 305.200,275.600 307.776,275.600 308.357 C 275.600 308.619,275.240 309.220,274.800 309.692 C 274.360 310.164,274.000 311.046,274.000 311.652 C 274.000 312.257,273.820 312.864,273.600 313.000 C 273.362 313.147,273.200 315.671,273.200 319.224 C 273.200 322.941,273.351 325.200,273.600 325.200 C 273.820 325.200,274.000 325.639,274.000 326.176 C 274.000 326.713,274.180 327.264,274.400 327.400 C 274.620 327.536,274.800 327.930,274.800 328.276 C 274.800 329.041,278.016 332.438,278.473 332.155 C 278.653 332.044,278.801 332.188,278.803 332.476 C 278.806 333.018,280.547 334.000,281.503 334.000 C 281.802 334.000,281.936 334.180,281.800 334.400 C 281.664 334.620,281.923 334.800,282.376 334.800 C 282.829 334.800,283.200 334.980,283.200 335.200 C 283.200 335.420,283.639 335.600,284.176 335.600 C 284.713 335.600,285.264 335.780,285.400 336.000 C 285.536 336.220,286.457 336.400,287.447 336.400 C 288.437 336.400,289.159 336.542,289.052 336.716 C 288.944 336.890,290.779 337.073,293.128 337.122 C 295.478 337.171,297.901 337.413,298.513 337.659 C 299.125 337.906,299.731 338.002,299.860 337.873 C 300.130 337.604,301.207 338.577,301.187 339.071 C 301.149 340.006,299.490 341.319,298.387 341.287 C 297.724 341.268,297.197 341.462,297.194 341.727 C 297.190 342.025,297.079 342.052,296.894 341.800 C 296.473 341.227,295.306 341.104,295.000 341.600 C 294.827 341.879,291.299 342.010,284.566 341.986 C 275.931 341.956,274.299 342.044,273.780 342.563 C 273.084 343.259,272.945 355.405,273.638 354.977 C 273.837 354.854,274.000 354.988,274.001 355.276 C 274.001 355.897,300.989 356.047,301.962 355.432 C 302.359 355.181,302.435 355.220,302.222 355.565 C 302.000 355.923,302.277 356.009,303.260 355.885 C 303.997 355.792,304.570 355.555,304.533 355.358 C 304.497 355.161,305.037 355.006,305.733 355.013 C 306.430 355.021,307.106 354.877,307.236 354.693 C 307.366 354.510,307.861 354.331,308.336 354.295 C 308.811 354.259,309.200 354.088,309.200 353.915 C 309.200 353.742,309.470 353.600,309.800 353.600 C 310.130 353.600,310.401 353.375,310.401 353.100 C 310.402 352.825,310.941 352.240,311.600 351.800 C 312.259 351.360,312.798 350.745,312.799 350.433 C 312.799 350.122,312.911 349.978,313.048 350.114 C 313.494 350.560,314.400 349.281,314.400 348.205 C 314.400 347.553,314.564 347.254,314.833 347.420 C 315.091 347.580,315.233 347.388,315.186 346.944 C 315.042 345.574,315.197 344.751,315.557 344.974 C 316.141 345.335,316.002 331.659,315.415 331.073 C 315.145 330.802,314.984 330.180,315.059 329.690 C 315.134 329.201,315.016 328.800,314.797 328.800 C 314.579 328.800,314.400 328.440,314.400 328.000 C 314.400 327.560,314.220 327.200,314.000 327.200 C 313.780 327.200,313.600 326.840,313.600 326.400 C 313.600 325.960,313.434 325.600,313.231 325.600 C 313.028 325.600,312.328 325.105,311.675 324.500 C 310.000 322.947,309.200 322.332,309.200 322.598 C 309.200 322.725,308.795 322.605,308.300 322.332 C 307.805 322.059,306.950 321.772,306.400 321.693 C 305.850 321.615,305.229 321.382,305.020 321.175 C 304.811 320.969,301.436 320.800,297.520 320.800 L 290.400 320.800 290.400 319.200 L 290.400 317.600 301.576 317.600 C 308.546 317.600,312.845 317.450,312.998 317.203 C 313.133 316.984,313.255 313.519,313.269 309.503 L 313.294 302.200 307.747 302.096 C 304.644 302.038,301.815 301.795,301.327 301.543 C 300.834 301.290,300.137 301.231,299.727 301.408 C 298.484 301.947,296.895 302.092,297.600 301.603 C 298.032 301.303,297.171 301.203,294.516 301.245 C 292.459 301.278,290.773 301.482,290.698 301.706 M231.185 303.041 C 230.649 304.448,230.680 354.229,231.217 355.232 C 231.618 355.981,265.095 356.476,266.960 355.760 C 267.911 355.395,267.896 340.400,266.946 340.400 C 266.620 340.400,266.464 340.220,266.600 340.000 C 266.736 339.780,266.582 339.600,266.257 339.600 C 265.932 339.600,265.576 339.825,265.465 340.100 C 265.307 340.491,265.256 340.488,265.232 340.086 C 265.207 339.683,263.288 339.582,256.300 339.616 L 247.400 339.659 247.296 320.876 L 247.192 302.092 241.573 302.046 C 237.183 302.010,236.015 302.110,236.235 302.500 C 236.461 302.900,236.409 302.900,235.979 302.500 C 235.682 302.225,235.041 302.000,234.553 302.000 C 234.066 302.000,233.576 302.225,233.465 302.500 C 233.304 302.900,233.257 302.900,233.232 302.500 C 233.171 301.548,231.593 301.965,231.185 303.041 M173.200 323.400 L 173.200 330.000 167.643 330.000 C 161.041 330.000,161.600 330.611,161.600 323.400 C 161.600 316.189,161.041 316.800,167.643 316.800 L 173.200 316.800 173.200 323.400 M116.800 321.600 L 116.800 325.600 111.800 325.600 L 106.800 325.600 106.800 321.600 L 106.800 317.600 111.800 317.600 L 116.800 317.600 116.800 321.600 " stroke="none" fill="#d40404" fill-rule="evenodd"></path><path id="path1" d="M238.000 43.551 C 238.000 43.877,244.380 43.754,244.712 43.421 C 244.853 43.280,243.400 43.196,241.484 43.234 C 239.568 43.271,238.000 43.414,238.000 43.551 M292.400 62.800 C 292.400 63.973,292.525 64.808,292.678 64.656 C 292.969 64.364,292.886 61.153,292.579 60.845 C 292.480 60.747,292.400 61.627,292.400 62.800 M308.210 71.170 C 308.065 71.626,307.799 72.000,307.620 72.000 C 307.440 72.000,307.199 72.360,307.084 72.800 C 306.969 73.240,306.933 73.600,307.005 73.600 C 307.302 73.600,308.874 70.741,308.682 70.549 C 308.567 70.434,308.354 70.713,308.210 71.170 M297.633 93.346 C 298.440 94.051,299.752 94.473,299.251 93.865 C 298.949 93.499,298.424 93.200,298.084 93.200 C 297.745 93.200,297.542 93.266,297.633 93.346 M137.684 94.640 C 137.401 94.948,137.311 95.213,137.484 95.228 C 137.658 95.244,137.440 95.411,137.000 95.600 C 136.335 95.886,136.315 95.949,136.886 95.972 C 137.263 95.987,137.773 95.625,138.018 95.166 C 138.561 94.151,138.387 93.877,137.684 94.640 M261.802 107.998 C 261.403 108.439,261.207 108.800,261.367 108.800 C 261.788 108.800,262.928 107.595,262.712 107.379 C 262.611 107.278,262.202 107.556,261.802 107.998 M233.062 112.586 C 232.975 112.816,233.481 113.012,234.201 113.028 C 235.130 113.048,235.380 112.931,235.084 112.614 C 234.562 112.055,233.271 112.038,233.062 112.586 M228.955 116.212 C 228.590 116.769,228.390 117.323,228.509 117.443 C 228.629 117.562,228.846 117.284,228.992 116.824 C 229.138 116.365,229.395 116.073,229.562 116.177 C 229.730 116.280,229.867 116.103,229.867 115.782 C 229.867 114.976,229.720 115.046,228.955 116.212 M144.482 131.301 C 144.253 131.577,144.006 132.068,143.933 132.392 C 143.860 132.716,143.575 133.223,143.300 133.519 C 142.572 134.302,142.686 134.971,143.422 134.236 C 143.764 133.894,144.117 133.232,144.207 132.766 C 144.296 132.300,144.579 131.667,144.834 131.359 C 145.089 131.052,145.208 130.800,145.098 130.800 C 144.988 130.800,144.711 131.026,144.482 131.301 M136.961 146.306 C 136.437 146.656,136.372 148.065,136.893 147.742 C 137.091 147.620,137.153 147.419,137.030 147.297 C 136.907 147.174,137.007 146.832,137.252 146.537 C 137.745 145.944,137.634 145.856,136.961 146.306 M226.000 200.279 C 226.000 200.639,226.118 200.815,226.263 200.670 C 226.408 200.525,226.772 200.611,227.072 200.860 C 227.501 201.216,227.567 201.179,227.378 200.688 C 227.033 199.787,226.000 199.481,226.000 200.279 M207.854 205.129 C 207.672 205.859,207.631 206.564,207.762 206.695 C 208.214 207.147,208.456 206.472,208.320 205.138 L 208.184 203.800 207.854 205.129 M110.592 214.424 C 110.237 215.542,110.516 215.746,111.107 214.800 C 111.378 214.366,111.427 213.940,111.221 213.813 C 111.021 213.689,110.738 213.965,110.592 214.424 M109.200 220.976 C 109.200 221.293,109.380 221.664,109.600 221.800 C 109.820 221.936,110.000 221.677,110.000 221.224 C 110.000 220.771,109.820 220.400,109.600 220.400 C 109.380 220.400,109.200 220.659,109.200 220.976 M79.949 225.900 C 79.471 226.509,79.478 226.540,80.000 226.138 C 80.330 225.884,81.050 225.594,81.600 225.493 L 82.600 225.309 81.549 225.254 C 80.970 225.224,80.252 225.514,79.949 225.900 M94.400 226.158 C 94.400 226.245,95.105 226.383,95.966 226.465 C 96.828 226.548,97.447 226.476,97.343 226.307 C 97.153 226.000,94.400 225.860,94.400 226.158 M208.800 235.400 C 208.800 235.996,208.972 236.341,209.200 236.200 C 209.420 236.064,209.600 235.704,209.600 235.400 C 209.600 235.096,209.420 234.736,209.200 234.600 C 208.972 234.459,208.800 234.804,208.800 235.400 M102.200 242.800 C 102.050 243.273,102.017 243.750,102.127 243.860 C 102.237 243.970,102.450 243.673,102.600 243.200 C 102.750 242.727,102.783 242.250,102.673 242.140 C 102.563 242.030,102.350 242.327,102.200 242.800 M76.800 244.267 C 76.800 245.000,76.963 245.600,77.163 245.600 C 77.362 245.600,77.431 245.239,77.315 244.798 C 77.200 244.357,77.304 243.757,77.546 243.465 C 77.879 243.064,77.842 242.933,77.394 242.933 C 76.988 242.933,76.800 243.354,76.800 244.267 M101.400 247.200 C 101.536 247.420,101.487 247.600,101.290 247.600 C 101.094 247.600,100.933 247.867,100.933 248.194 C 100.933 248.643,101.063 248.680,101.467 248.345 C 102.103 247.817,102.175 246.800,101.576 246.800 C 101.343 246.800,101.264 246.980,101.400 247.200 M239.215 255.200 C 239.221 255.530,239.490 256.149,239.813 256.576 C 240.568 257.575,240.563 257.205,239.802 255.746 C 239.474 255.116,239.210 254.870,239.215 255.200 M230.000 266.400 C 229.532 266.702,229.643 266.789,230.500 266.794 C 231.105 266.797,231.600 266.620,231.600 266.400 C 231.600 265.894,230.783 265.894,230.000 266.400 M164.410 301.323 C 164.761 301.639,170.000 301.911,170.000 301.615 C 170.000 301.453,168.699 301.283,167.110 301.237 C 165.520 301.190,164.305 301.229,164.410 301.323 M297.600 301.616 C 297.137 301.927,297.248 301.990,298.085 301.891 C 298.682 301.821,299.297 301.637,299.452 301.482 C 299.888 301.045,298.275 301.162,297.600 301.616 M301.400 301.600 C 301.536 301.820,302.042 301.987,302.524 301.972 C 303.369 301.945,303.371 301.931,302.600 301.600 C 301.499 301.127,301.108 301.127,301.400 301.600 M313.361 309.600 C 313.361 313.010,313.422 314.405,313.497 312.700 C 313.572 310.995,313.572 308.205,313.497 306.500 C 313.422 304.795,313.361 306.190,313.361 309.600 M217.388 328.200 C 217.388 341.400,217.438 346.742,217.500 340.071 C 217.561 333.401,217.561 322.601,217.500 316.071 C 217.438 309.542,217.388 315.000,217.388 328.200 M273.492 311.842 C 273.331 312.002,273.200 312.409,273.200 312.747 C 273.200 313.197,273.318 313.242,273.645 312.915 C 273.890 312.670,274.021 312.263,273.937 312.010 C 273.852 311.757,273.652 311.681,273.492 311.842 M161.760 323.400 C 161.761 326.700,161.822 327.997,161.898 326.282 C 161.973 324.567,161.972 321.867,161.897 320.282 C 161.821 318.697,161.759 320.100,161.760 323.400 M109.317 325.497 C 110.811 325.574,113.151 325.574,114.517 325.496 C 115.882 325.418,114.660 325.355,111.800 325.355 C 108.940 325.356,107.822 325.420,109.317 325.497 M273.944 341.987 C 273.425 342.419,273.210 342.779,273.467 342.787 C 273.723 342.794,273.997 342.609,274.075 342.375 C 274.170 342.089,277.562 341.962,284.478 341.986 C 291.106 342.009,294.829 341.876,294.993 341.611 C 295.543 340.721,275.024 341.088,273.944 341.987 M112.409 350.537 C 112.404 350.722,112.760 351.331,113.200 351.891 C 113.640 352.450,113.996 352.749,113.991 352.554 C 113.979 352.087,112.420 350.100,112.409 350.537 M311.256 352.013 C 310.736 352.446,310.491 352.800,310.711 352.800 C 310.931 352.800,311.536 352.446,312.056 352.013 C 312.575 351.581,312.820 351.227,312.600 351.227 C 312.380 351.227,311.775 351.581,311.256 352.013 M116.962 355.262 C 116.785 355.548,116.852 355.615,117.138 355.438 C 117.392 355.281,117.600 355.343,117.600 355.576 C 117.600 356.066,137.899 356.179,138.663 355.694 C 138.918 355.532,134.528 355.457,128.909 355.526 C 122.054 355.610,118.552 355.512,118.266 355.226 C 117.716 354.676,117.317 354.687,116.962 355.262 M175.647 355.380 C 175.924 355.657,187.218 355.715,187.492 355.441 C 187.625 355.309,184.973 355.200,181.600 355.200 C 178.227 355.200,175.548 355.281,175.647 355.380 M274.585 356.024 C 274.442 356.255,278.435 356.400,284.953 356.400 C 291.773 356.400,295.643 356.254,295.807 355.989 C 295.978 355.712,292.612 355.590,285.439 355.613 C 279.278 355.633,274.720 355.806,274.585 356.024 M95.682 356.696 C 97.158 356.773,99.678 356.773,101.282 356.697 C 102.887 356.621,101.680 356.558,98.600 356.558 C 95.520 356.557,94.207 356.619,95.682 356.696 " stroke="none" fill="#d80404" fill-rule="evenodd"></path></g></svg>