<svg xmlns="http://www.w3.org/2000/svg" xml:space="preserve" width="300.533" height="453.04"><path d="M1607.68 2080.77c-166.19-262.08-441.91-357.66-480.26-369.89-38.28 12.27-313.096 107.81-479.197 369.89-166.485 262.37-172.551 472.68-172.551 501.37v301.36H1780.12v-297.39c0-.11.12-1.31.12-3.46 0-29.47-6.13-239.64-172.56-501.88" style="fill:#fff;fill-opacity:1;fill-rule:nonzero;stroke:none" transform="matrix(.13333 0 0 -.13333 0 453.04)"/><path d="M2.54 532.266h34.44l77.97-142.336h.559v142.336h25.312V355.477h-32.433l-80.02 145.316h-.488V355.477H2.539v176.789m257.527-126.653c0-19.238-12.421-33.945-35.976-33.945-10.86 0-24.043 7.336-24.043 21.035 0 22.785 31.914 24.805 44.844 24.805 5.058 0 10.058-.477 15.175-.477zm-69.382 49.668c9.578 8.098 24.05 13.117 37.441 13.117 23.836 0 31.941-11.398 31.941-33.703-9.355.539-15.957.539-25.332.539-24.539 0-60-10.109-60-42.531 0-28.086 19.504-40.273 47.356-40.273 21.765 0 34.422 11.925 40.008 19.777h.488v-16.73h22.305c-.516 3.82-1.043 10.644-1.043 25.332v53.437c0 35.156-14.914 53.438-51.887 53.438-16.465 0-30.645-5.039-42.539-12.149l1.262-20.254m202.058 10.129h-34.187v-70.676c0-14.968 9.148-23.066 20.008-23.066 7.363 0 12.656 2.277 16.234 4.582v-20.273c-5.356-1.524-12.649-3.547-20.277-3.547-24.579 0-39.754 11.672-39.754 37.5v75.48h-29.133v19.238h29.133v29.872l23.789 7.617v-37.489h34.187V465.41m32.942-109.933h23.796v129.171h-23.796zm25.332 184.863h-26.895v-26.836h26.895v26.836m58.711-120.274c0 24.504 14.941 48.332 40.527 48.332 25.312 0 40.281-23.828 40.281-48.332 0-23.086-12.39-48.398-40.281-48.398-28.078 0-40.527 25.312-40.527 48.398zm-25.305 0c0-36.98 26.828-67.636 65.832-67.636 38.738 0 65.574 30.656 65.574 67.636 0 39.27-26.297 67.618-65.574 67.618-39.5 0-65.832-28.348-65.832-67.618m163.351 64.582h23.036v-20.566h.468c7.11 14.715 24.336 23.602 42.305 23.602 33.43 0 48.398-20.809 48.398-55.489v-76.718h-23.847v66.816c0 30.176-6.543 44.836-27.332 46.105-27.082 0-39.258-21.777-39.258-53.156v-59.765h-23.77v129.171m231.426-79.035c0-19.238-12.402-33.945-35.949-33.945-10.898 0-24.102 7.336-24.102 21.035 0 22.785 31.899 24.805 44.864 24.805 5.051 0 10.117-.477 15.187-.477zm-69.414 49.668c9.637 8.098 24.09 13.117 37.469 13.117 23.793 0 31.945-11.398 31.945-33.703-9.367.539-15.969.539-25.324.539-24.539 0-60.02-10.109-60.02-42.531 0-28.086 19.493-40.273 47.364-40.273 21.769 0 34.426 11.925 40 19.777h.508v-16.73h22.277c-.488 3.82-1.008 10.644-1.008 25.332v53.437c0 35.156-14.941 53.438-51.949 53.438-16.391 0-30.57-5.039-42.484-12.149l1.222-20.254m136.524 90.137h23.789V355.477h-23.789v189.941m270.461-116.777c0-49.637-25.04-76.211-68.59-76.211-43.57 0-68.63 26.574-68.63 76.211v103.625h25.34V432c0-33.973 10.61-57.266 43.29-57.266 32.66 0 43.28 23.293 43.28 57.266v100.266h25.31V428.641m43.07 56.007h23.03v-20.566h.51c7.14 14.715 24.37 23.602 42.26 23.602 33.48 0 48.44-20.809 48.44-55.489v-76.718h-23.83v66.816c0 30.176-6.56 44.836-27.38 46.105-27.05 0-39.24-21.777-39.24-53.156v-59.765h-23.79v129.171m157.75 0h23.79V355.477h-23.79zm25.34 28.856h-26.82v26.836h26.82v-26.836m99.23-158.027h-28.32l-46.32 129.171h26.03l35-105.382h.47l35.68 105.382h23.83l-46.37-129.171m86.16 77.023c1.73 16.707 11.34 35.898 34.66 35.898 20.47 0 32.15-16.21 32.15-35.898zm82.26-47.891c-5.84-4.843-24.02-12.941-39.74-12.941-22.54 0-42.52 17.5-42.52 43.117h92.16c0 41.453-13.92 72.899-56.99 72.899-36.44 0-60.54-27.118-60.54-65.391 0-41.992 21.03-69.863 66.87-69.863 21.27 0 31.68 5.097 40.76 8.351v23.828m41.82 100.039h22.26v-20.031h.55c6.27 13.449 19.96 23.067 33.63 23.067 7.09 0 10.63-.782 15.73-1.805v-21.262c-4.34 1.809-9.14 2.258-13.21 2.258-21.25 0-35.17-20.254-35.17-52.676v-58.722h-23.79v129.171m88.87-103.839c9.33-6.075 22.79-9.141 29.59-9.141 10.91 0 24.31 4.582 24.31 18.477 0 23.574-55.96 21.601-55.96 57.746 0 26.882 20.02 39.793 45.59 39.793 11.13 0 20.25-2.332 29.63-5.039l-2.03-20.84c-5.31 3.363-19.51 6.593-25.06 6.593-12.15 0-22.77-5.019-22.77-15.73 0-26.293 55.95-18.703 55.95-59.965 0-27.586-22.05-40.273-45.07-40.273-12.15 0-24.57 1.261-35.47 7.09l1.29 21.289m111.13 103.839h23.85V355.477h-23.85zm25.37 28.856h-26.84v26.836h26.84v-26.836m110.61-48.094h-34.15v-70.676c0-14.968 9.09-23.066 19.97-23.066 7.42 0 12.69 2.277 16.23 4.582v-20.273c-5.32-1.524-12.66-3.547-20.26-3.547-24.57 0-39.76 11.672-39.76 37.5v75.48h-29.11v19.238h29.11v29.872l23.82 7.617v-37.489h34.15V465.41m20.27-144.844c3.05-1.046 7.09-2.05 11.15-2.05 21.25 0 28.34 29.382 28.34 31.894 0 2.754-3.03 9.363-4.55 13.692l-43.81 120.546h26.06l34.7-106.906h.47l35.51 106.906h24.1l-47.66-131.964c-8.84-24.774-18.24-53.418-49.58-53.418-7.64 0-11.96 1.027-16.24 1.789l1.51 19.511M392.273 120.77c0 24.55 14.942 48.378 40.508 48.378 25.313 0 40.274-23.828 40.274-48.378 0-22.977-12.403-48.38-40.274-48.38-28.105 0-40.508 25.403-40.508 48.38zm-25.312 0c0-36.934 26.836-67.618 65.82-67.618 38.731 0 65.586 30.684 65.586 67.618 0 39.277-26.347 67.636-65.586 67.636-39.472 0-65.82-28.359-65.82-67.636m178.73 45.332H515.32v19.257h30.371v11.934c0 31.34 8.157 51.867 43.36 51.867 6.078 0 11.133-.762 15.89-1.492l-.957-19.27c-2.785 1.043-7.375 1.493-11.418 1.493-20.496 0-23.035-13.164-23.035-30.625v-13.907h34.207v-19.257h-34.207V56.219h-23.84v109.883m228.997 40.253c-12.911 5.063-20.012 7.395-33.165 7.395-14.199 0-30.898-5.125-30.898-23.605 0-33.973 75.957-26.036 75.957-84.313 0-37.719-29.113-52.68-64.562-52.68-12.383 0-24.559 3.536-36.18 7.375l2.508 23.504c8.586-3.515 23.808-8.574 36.718-8.574 14.446 0 34.688 8.066 34.688 28.887 0 39.492-75.977 28.547-75.977 83.554 0 31.391 24.817 48.086 56.75 48.086 11.649 0 25.555-2.011 37.703-6.269l-3.542-23.36m47.089-20.996h23.836V56.219h-23.836zm25.34 28.868h-26.816v26.828h26.816v-26.828m42.043-28.868h23.047v-20.527h.496c7.102 14.719 24.317 23.574 42.277 23.574 33.446 0 48.41-20.761 48.41-55.515V56.219h-23.859v66.828c0 30.176-6.554 44.832-27.324 46.101-27.102 0-39.258-21.796-39.258-53.191V56.219H889.16v129.14m207.39-109.902c-22.32 0-35.96 21.27-35.96 45.617 0 21.965 11.94 48.074 35.96 48.074 25.33 0 37.7-23.066 37.7-49.898 0-24.074-15.4-43.793-37.7-43.793zm61.53 109.902h-22.05v-19.257h-.49c-7.08 13.898-19.72 22.304-42.54 22.304-38.99 0-57.71-35.468-57.71-68.652 0-33.418 18.19-63.535 55.15-63.535 16.5 0 33.22 6.554 43.35 20h.46V63.563c0-27.344-14.91-44.325-39.99-44.325-17.49 0-28.35 3.282-46.58 11.64l-2.55-22.042C1065.91 1.805 1077.82 0 1091.47 0c46.36 0 66.61 22.52 66.61 61.816V185.36m117.27-78.993c0-19.238-12.42-33.976-36.02-33.976-10.88 0-24.02 7.363-24.02 21.035 0 22.785 31.93 24.816 44.78 24.816 5.12 0 10.18-.535 15.26-.535zm-69.38 49.637c9.57 8.105 24.01 13.144 37.46 13.144 23.75 0 31.92-11.394 31.92-33.71-9.38.519-15.98.519-25.37.519-24.55 0-60-10.156-60-42.531 0-28.094 19.47-40.274 47.4-40.274 21.7 0 34.41 11.934 39.98 19.805h.53V56.219h22.26c-.52 3.77-.99 10.578-.99 25.312v53.41c0 35.215-15.02 53.465-51.92 53.465-16.46 0-30.68-5.097-42.56-12.187l1.29-20.215m230.92-34.707c.47-20.274-10.14-48.906-35.72-48.906-26.84 0-37.99 26.601-37.99 48.097 0 24.071 12.42 48.66 38.24 48.66s35.94-24.589 35.47-47.851zM1339.41 3.039h23.77v70.867h.53c7.34-11.894 20.25-20.754 43.06-20.754 39.01 0 55.43 34.453 55.43 69.895 0 34.707-18.22 65.359-55.7 65.359-22.79 0-37.48-11.699-43.83-21.289h-.47v18.242h-22.79V3.039M1510.8 120.77c0 24.55 14.96 48.378 40.54 48.378 25.32 0 40.26-23.828 40.26-48.378 0-22.977-12.4-48.38-40.26-48.38-28.12 0-40.54 25.403-40.54 48.38zm-25.32 0c0-36.934 26.88-67.618 65.86-67.618 38.71 0 65.55 30.684 65.55 67.618 0 39.277-26.31 67.636-65.55 67.636-39.53 0-65.86-28.359-65.86-67.636m163.36 64.589h22.27v-20.046h.51c6.33 13.503 20 23.093 33.69 23.093 7.05 0 10.62-.761 15.7-1.824v-21.269c-4.33 1.804-9.12 2.332-13.16 2.332-21.27 0-35.18-20.293-35.18-52.637v-58.79h-23.83V185.36m115.2-52.13c1.76 16.672 11.39 35.918 34.71 35.918 20.48 0 32.14-16.21 32.14-35.918zm82.3-47.93c-5.84-4.784-24.08-12.91-39.76-12.91-22.54 0-42.54 17.493-42.54 43.04h92.17c0 41.504-13.93 72.976-56.96 72.976-36.44 0-60.54-27.136-60.54-65.359 0-41.992 21.05-69.895 66.87-69.895 21.25 0 31.64 5.059 40.76 8.38V85.3M1636.4 884.609c48.52-44.718 144.06-85.5 260.78-87.324 102.29-1.75 184.85 29.024 189.93 113.848 10.84 183.637-460 110.147-441.76 420.107 9.08 155.08 163.06 206.44 329.18 203.59 89.8-1.52 179.57-22.77 228.79-47.78l.17-110.14c-60 41.2-143.75 67.43-213.04 68.72-105.41 1.94-189.09-17.5-190.38-94.53-2.85-160.69 472.09-122.15 453.97-429.53-10.22-173.086-178.4-226.179-354.49-222.949-101.25 1.387-200.45 21.965-262.91 53.918l-.24 132.07m-445.37-186.828c-218.717 0-344.643 98.215-344.643 300.254v512.945h163.963l.07-512.945c0-125.574 60.31-201.797 180.61-201.797 120.26 0 180.61 76.223 180.61 201.797l.06 512.945h163.88V998.035c0-202.039-125.92-300.254-344.55-300.254M580.047 1510.98V933.184L204.285 1470.12c-17.812 24.74-47.168 40.86-79.871 40.86H0V723.113h109.297v578.147l375.125-535.276c17.812-25.574 47.394-42.871 81.23-42.871h123.653v787.867H580.047M1791.32 2582.53v815.26H463.191v-815.88c-.058-.68-.117-2.82-.117-6.28 0-38.52 8.36-242.32 172.246-500.49 179.035-282.55 474.47-369.88 486.93-373.41l4.47-1.27 4.45 1.27c12.54 3.53 308.92 90.86 488.06 373.41 178.6 281.46 172.41 498.32 172.09 507.39zm-199.47-490.07c-160.9-253.78-428.03-346.37-465.13-358.21-36.99 11.86-303.216 104.43-464.036 358.21-161.297 254.06-167.188 457.8-167.188 485.63 0 1.99.059 3.09.059 3.23v288.63H1758.92v-288.04c0-.19.08-1.29.08-3.37 0-28.53-6-232.09-167.15-486.08" style="fill:#173e7d;fill-opacity:1;fill-rule:nonzero;stroke:none" transform="matrix(.13333 0 0 -.13333 0 453.04)"/><path d="m1390.86 2754.13.23.06c-.06-.02-.2-.02-.23-.06" style="fill:#5b261b;fill-opacity:1;fill-rule:nonzero;stroke:none" transform="matrix(.13333 0 0 -.13333 0 453.04)"/><path d="M1085.8 3300.26c-2.28.4-56.31 9.95-120.87 9.95-51.172 0-97.344-15.36-117.617-23.21-20.313 7.85-66.485 23.21-117.625 23.21-64.532 0-118.614-9.55-120.879-9.95l-7.278-1.3v-343.82l10.715 2.35c.438.11 45.164 9.69 111.035 9.69 49.481 0 100.809-13.76 121.004-21.05l3.012-1.1 3.043 1.1c20.195 7.29 71.484 21.05 121.015 21.05 65.835 0 110.545-9.58 111.005-9.69l10.71-2.35v343.82l-7.27 1.3" style="fill:#f57c14;fill-opacity:1;fill-rule:nonzero;stroke:none" transform="matrix(.13333 0 0 -.13333 0 453.04)"/><path d="M838.828 3271.02c-20.449 7.68-62.648 21.06-108.73 21.06-49.953 0-93.996-5.97-110.52-8.52v-259.88c17.246 2.95 54.434 8.11 104.074 8.11 44.512 0 89.004-10.17 115.176-18.25v257.48m126.504 21.06c-46.711 0-89.414-13.73-109.57-21.33v-257.46c26.015 8.12 70.984 18.5 115.984 18.5 49.644 0 86.804-5.16 104.084-8.11v259.88c-16.51 2.55-60.58 8.52-110.498 8.52" style="fill:#fff;fill-opacity:1;fill-rule:nonzero;stroke:none" transform="matrix(.13333 0 0 -.13333 0 453.04)"/><path d="M668.563 3248.74c-6.387-1.72-9.911-7.56-7.969-13.09 1.972-5.54 8.722-8.6 15.117-6.91.336.1 33.332 5.95 61.477 5.95 25.496 0 54.14-11.61 54.46-11.73 6.223-2.03 13.184.71 15.5 6.11 2.344 5.42-.82 11.46-7.05 13.51-1.387.47-32.93 13-62.91 13-31.887 0-67.168-6.45-68.625-6.84m0-51.62c-6.387-1.71-9.911-7.57-7.969-13.11 1.972-5.51 8.722-8.59 15.117-6.89.336.07 33.332 5.9 61.477 5.9 25.496 0 54.14-11.59 54.46-11.69 6.223-2.03 13.184.72 15.5 6.15 2.344 5.38-.82 11.41-7.05 13.45-1.387.45-32.93 13.04-62.91 13.04-31.887 0-67.168-6.48-68.625-6.85m0-51.66c-6.387-1.68-9.911-7.59-7.969-13.08 1.972-5.52 8.722-8.62 15.117-6.91.336.08 33.332 5.92 61.477 5.92 25.496 0 54.14-11.6 54.46-11.68 6.223-2.03 13.184.71 15.5 6.11 2.344 5.44-.82 11.43-7.05 13.47-1.387.46-32.93 13.05-62.91 13.05-31.887 0-67.168-6.47-68.625-6.88m0-51.62c-6.387-1.73-9.911-7.59-7.969-13.09 1.972-5.53 8.722-8.61 15.117-6.91.336.09 33.332 5.96 61.477 5.96 25.496 0 54.14-11.66 54.46-11.75 6.223-2.01 13.184.71 15.5 6.13 2.344 5.4-.82 11.45-7.05 13.49-1.387.42-32.93 13.05-62.91 13.05-31.887 0-67.168-6.5-68.625-6.88m359.257 154.9c6.39-1.72 9.93-7.56 7.99-13.09-2.01-5.54-8.75-8.6-15.11-6.91-.33.1-33.337 5.95-61.493 5.95-25.496 0-54.148-11.61-54.441-11.73-6.231-2.03-13.176.71-15.52 6.11-2.344 5.42.82 11.46 7.031 13.51 1.399.47 32.969 13 62.93 13 31.875 0 67.153-6.45 68.613-6.84m0-51.62c6.39-1.71 9.93-7.57 7.99-13.11-2.01-5.51-8.75-8.59-15.11-6.89-.33.07-33.337 5.9-61.493 5.9-25.496 0-54.148-11.59-54.441-11.69-6.231-2.03-13.176.72-15.52 6.15-2.344 5.38.82 11.41 7.031 13.45 1.399.45 32.969 13.04 62.93 13.04 31.875 0 67.153-6.48 68.613-6.85m0-51.66c6.39-1.68 9.93-7.59 7.99-13.08-2.01-5.52-8.75-8.62-15.11-6.91-.33.08-33.337 5.92-61.493 5.92-25.496 0-54.148-11.6-54.441-11.68-6.231-2.03-13.176.71-15.52 6.11-2.344 5.44.82 11.43 7.031 13.47 1.399.46 32.969 13.05 62.93 13.05 31.875 0 67.153-6.47 68.613-6.88m0-51.62c6.39-1.73 9.93-7.59 7.99-13.09-2.01-5.53-8.75-8.61-15.11-6.91-.33.09-33.337 5.96-61.493 5.96-25.496 0-54.148-11.66-54.441-11.75-6.231-2.01-13.176.71-15.52 6.13-2.344 5.4.82 11.45 7.031 13.49 1.399.42 32.969 13.05 62.93 13.05 31.875 0 67.153-6.5 68.613-6.88m673.41-454.32c-6.53 23.75-18.5 34.28-34.46 42.73-44.06 23.38-101.58 7.02-151.99-10.15-38.07-12.99-49.57-16.9-92.71-23.52-32.58-5-141.57-19.12-176.02 9.38-4.92 4.08-9.88 13.04-10.41 18.78-.98 11.89 4.43 26.05 8.56 30.55 8.71 9.53 28.98 14.14 62.05 14.14l84.35-1.31c5.31-6.79 18.81-17.72 53.07-25.05 54.51-11.63 114.43 7.29 114.43 7.29s-9.86 1.98-18.14 8.16c-7.27 5.44-6.66 13.64-6.66 13.64s12.05-5.8 29.51-5.27c21.8.62 31.89 11 52.24 16.16 20.36 5.16 43.01.91 43.01.91s-20.54 21.96-40.93 25.86c-20.3 3.86-45.69-1.34-45.69-1.34s6.35 2.85 13.93 9.68c6.05 5.45 7.3 14.83 7.3 14.83s-24.35-9.45-49.08-8.16c-24.73 1.3-22.89 10.19-70.82 11.52-36.35.95-66.41-20.65-78.87-31.14-38.83 2.53-69.43 3.9-87.34 3.9-49.43 0-77.97-8.11-95.41-27.06-14.53-15.82-20.92-36.33-18.83-60.93 1.62-19.16 10.18-35.24 25.39-47.83 46.11-38.13 169.81-26.43 213.58-18.69 49.02 8.65 63.67 12.44 92.05 21.86l1.64.54c21.97 7.33 88.81 29.68 116.83 14.78 5.71-3 9.61-8.64 11.96-17.24 1.09-3.87 1.62-7.37 1.62-10.55 0-5.82-1.76-10.68-5.39-15.1-25.53-31.2-121.51-36.51-163.19-38.74-4.59 1.08-32.5 7.33-69.49 7.55-24.78.16-45.51-1.43-67.44-3.1-40.08-3.02-81.5-6.15-150.33 1.73-31.9 3.64-61.82 9.46-84.34 16.12-1.06 8.57-5.07 16.71-13.62 26.3 16.5-5.33 38 12.8 44.01 21.84-.1.87-29.32 8.64-31.07 27.62-.07.6 20.72-1.72 29.35 26.74-20.74 11.23-14.2 15.35-24.18 29.35-8.77 12.3-21.46 18.49-37.09 18.11 6.3.8 6.88 0 13.77 3.47 9.01 4.5 15.27 16.91 24.17 16.39-18 28.19-66.43 31.92-86.5 25.99 5.16 6.41 13.05 13.51 13.16 22.3-26.75-7.38-52.991 6.54-79.983 1.48-22.356-4.19-35.118-13.29-42.129-34.52h-1.016c-7.062 21.23-19.797 30.33-42.168 34.52-26.973 5.06-53.223-8.86-80-1.48.125-8.79 8.047-15.89 13.145-22.3-20.032 5.93-68.45 2.2-86.477-25.99 8.938.52 15.176-11.89 24.16-16.39 7.942-4 9.555-3.18 13.809-3.47-15.606.38-28.309-5.81-37.098-18.11-9.98-14-3.469-18.12-24.16-29.35 8.633-28.46 29.375-26.14 29.324-26.74-1.707-18.98-30.996-26.75-31.062-27.62 6.043-9.04 27.492-27.17 44.011-21.84-13.543-15.17-15.82-26.75-12.695-42.04-21.062 15.97-41.836 33.6-52.898 48.21-2.578 3.77-10.84 30.95-16.328 48.97l-4.454 14.65-2.187 7.76c-6.602 24.25-12.981 44.52-23.977 47.24-6.074 1.42-11.445 1.75-16.308 1.45-3.789 5.93-9.082 12.2-15.301 14.11-12.746 3.93-18.938 1.11-18.938 1.11s10.333-7.4 13.821-15.04a27.569 27.569 0 0 0 1.804-5.51c-2.343-1.32-4.421-2.75-6.171-4.18l-.938-.75a112.53 112.53 0 0 1-4.988-4.24c-.871.26-1.758.49-2.649.6-13.242 1.75-18.886-2.11-18.886-2.11s7.207-3.51 12.539-8.43c-4.629-6.41-8.438-14.65-8.438-24.78 0-1.01.09-2.08.196-3.11-12.657-.99-17.332-5.56-17.332-5.56s12.292-3.31 18.261-9.19c.653-.65 1.239-1.32 1.758-1.96l-1.008-1.15c-2.566-4.01-3.711-8.56-3.711-13.26 0-11.07 6.203-22.97 14.727-30.77 0 0 22.734-18.81 24.844-20.59 9.004-20.04 18.937-37.69 25.461-45.09 2.031-2.58 15.886-26.46 30.613-51.77 1.965-3.37 3.965-6.8 6.008-10.33 3.144-15.52 6.718-34.85 8.32-50 2.93-27.31.144-57.83.144-57.83s17.696.89 25.723 12.43c.149.26 6.535-18.93 5.606-40.59-.723-15.99-4.981-38.17-4.981-38.17s17.258 9.12 30.254 20.6c6.535 5.78 13.137 15.32 17.129 21.59 14.277-9.13 55.098 5.41 75.48 13.6 3.985-8.1 9.434-17.04 16.961-27.18 2.969 12.23 16.028 18.32 22.063 28.12 1.844.01 3.699.02 5.555.02.742-13.37-3.125-25.96 9.543-50.99 3.593-7.08 21.152-33.24 33.914-46.68-4.825-22.66-14.024-63.96-23.497-97.85-10.878-38.7-19.683-57.9-24.695-66.86-14.543-.72-41.203-1.64-49.68-1.24-20.242.95-35.234-3.28-44.55-12.59-.703-.71-1.25-1.41-1.856-2.11-7.051-.99-15.183-3.22-19.57-8.15-8.809-9.98-8.875-16.81-8.875-16.81s11.043 6.36 19.414 6.36c.633 0 1.18-.03 1.766-.09 0-.71 0-1.31.019-1.72.078-1.94 1.25-5.14 3.086-8.97-1.355-.99-2.598-2.12-3.574-3.38-8.125-10.59-7.695-17.4-7.695-17.4s10.351 6.95 18.671 7.65c2.618-4.14 5.539-8.43 8.614-12.58-.371-.42-.742-.84-1.043-1.3-7.336-11.17-6.36-17.92-6.36-17.92s8.196 6.43 15.938 8.55c2.676-3 5.305-5.74 7.765-7.92 12.176-10.73 42.469-3.78 80.809 6.44l23.789 5.87c16.797 3.11 27.207 9.84 34.902 22.43 1.829 2.96 3.489 7.88 6.067 15.62l2.254 6.7c5.273 14.89 9.406 24.4 19.941 41.27.313.53 10.617 17.05 24.621 39.84 12.407 10.3 27.347 22.32 38.207 29.64 16.58 11.21 49.61 28.07 49.61 28.07s-8.83 14.32-21.92 16.25c-.27.04 16.73 17.32 30.96 23.49 16.05 6.98 36.74 10.78 36.74 10.78s-7.52 15.47-19.18 22.97c4.86 1.57 9.28 4.39 14.82 8.04 27.89 18.2 48.47 17.56 67.85 12.11.78 12.57-2.42 20.27-13.34 27.54 9.2 3.92 18.67 7.24 28.71 9.65 6.39-10.92 13.57-22.99 16.86-27.63 14.37-20.37 35.97-48.42 53.49-65.99.45-.42.67-1.24.67-2.35 0-7.35-8.97-27.64-14.09-39.26l-4.39-10c0-.01-17.64-41.4-22.77-53.5-10.22-.6-39.91-2.2-50.36-1.68-19.76.92-34.37-3.18-43.47-12.25a32.794 32.794 0 0 1-3.03-3.53c-7.34-1.31-16.18-3.99-20.55-9.56-8.23-10.54-7.89-17.28-7.89-17.28s10.64 6.97 18.99 7.44c1.3.1 2.53.07 3.66-.04.35-2.22 1.57-5.36 3.45-9.1-1.96-1.43-3.66-3.02-4.89-4.89-7.3-11.17-6.35-17.88-6.35-17.88s9.99 7.85 18.33 9.09c.27.04.56.04.88.08 2.01-3.09 4.16-6.21 6.4-9.25-.82-.78-1.58-1.62-2.17-2.53-7.34-11.18-6.38-17.97-6.38-17.97s9.57 7.57 17.71 9c2.6-2.95 5.06-5.5 7.38-7.54 11.66-10.29 36.59-4.2 70.51 5.58l24.18 6.33c16.41 3.05 26.58 9.61 34.1 21.86 0 .04 6.37 13.7 6.37 13.7 2.99 6.96 6.39 14.82 9 18.9 3.93 6.19 8.05 13.63 12.27 21.68 5.68 4.89 10.94 9.33 14.71 12.2 10.8 8.29 38.3 23.45 38.3 23.45s-5.47 12.02-16.66 13.18c-.18 0 10.86 12.3 24.14 19.98 9.39 5.45 28.07 8.72 28.07 8.72s-12.88 10.9-22.64 15.13c-3.95 1.74-9.1 2.89-13.97 3.74-.6 5.58-3.55 11.84-8.92 20.11-9.65 14.91 4.47 46.98 14.57 65.11 5.12-7.18 14.26-19.13 29.51-36.06 0 0 48.93-53.54 59.79-65.4-2.13-8.54-9.07-35.24-19.85-64.72-7.85-21.41-18.98-43.79-24.73-54.78-11.81-.66-38.51-2.02-48.3-1.59-19.7.98-34.33-3.16-43.45-12.24-1.55-1.53-2.76-3.12-3.79-4.7-6.64-1.56-13.85-4.35-17.54-9.28-8.13-10.68-7.6-17.44-7.6-17.44s7.97 7.49 18.85 7.78c.49.01.92 0 1.42 0 .51-2.32 1.76-5.41 3.64-9.05-1.9-1.36-3.62-2.94-4.83-4.77-7.26-11.2-6.32-17.92-6.32-17.92s9.96 7.91 18.22 9.09c.35.04.62.04.94.07 2.55-3.89 5.37-7.86 8.24-11.61-.08-.08-.18-.13-.22-.23-7.3-11.14-6.36-17.9-6.36-17.9s7.36 5.85 14.74 8.22c2.13-2.36 4.22-4.5 6.11-6.18 11.74-10.36 36.74-4.2 70.81 5.64l23.96 6.27c16.33 3.03 26.54 9.55 34.08 21.85 3.28 5.48 18.17 40.16 22.27 50.19 7.36 18.01 15.62 36.61 23.63 53.65 4.02 3.4 7.81 6.44 10.86 8.56 13.36 9.3 42.05 25.65 42.05 25.65s-5.72 12.27-16.72 13.15c-.13.06 11.25 10.94 22.6 18.2 10.55 6.75 29.65 10.54 29.65 10.54s-13.79 10.48-23.56 14.7c-5.68 2.47-13.86 4.06-19.66 4.96-1.68 8.13-5.77 10.84-11.96 13.97-5.45 2.78-13.01 6.62-24.43 20.08-14.73 17.28-16.93 50.35-16.93 83.35 0 7.27.11 14.52.23 21.58l.08 31.69c-.98 37.2-6.47 63.17-11.58 80.3 48.51 4.41 137.5 14.25 173.9 58.81 10.92 13.39 16.47 29.04 16.47 46.11 0 7.62-1.1 15.53-3.32 23.64" style="fill:#173e7d;fill-opacity:1;fill-rule:nonzero;stroke:none" transform="matrix(.13333 0 0 -.13333 0 453.04)"/><path d="M1353.04 2234.71c6.51 5.97 9.73 9.22 9.73 13.49 0 3.64-2.38 8.03-7.21 15.46-3.63 5.63-5.1 12.38-5.1 19.58 0 23.91 15.92 52.63 22.19 63.06-1.79 2.24-4.33 5.53-7.48 9.83-1.66 1.11-3.14 2.09-4.04 2.73-4.06 2.85-14.49 11.63-21 20.21-.9 1.2-1.83 2.72-2.77 4.36-13.48.39-44.9 1.28-77.27-8.55 10-5.74 12.33-13.17 12.74-22.7-21.25 4.64-39.26 4.89-55.37 2.56 5.64-9.58 11.42-19.26 14.14-23.07 14.06-20 35.15-47.4 52.15-64.42 2.75-2.76 3.92-6.4 3.92-10.86 0-10.49-6.56-25.55-14.84-44.21l-4.32-9.93-25.66-60.36-3.77-.22c-1.68-.11-42.21-2.58-55.43-1.92-14.45.71-25.51-1.73-32.29-7 .78-2.79 1.35-6.41.34-9.83-1.31-4.53-4.16-6.82-6.47-8.01.33-.62.68-1.3 1.07-2.06 7.93 2.67 15.55 3.39 15.55 3.39s4.4-5.76 2.6-13c-1.41-5.51-4.08-8.41-5.98-9.86.53-.76 1.1-1.5 1.64-2.27 9.01 3.63 18.81 4.6 18.81 4.6s4.59-7 3.05-14.58c-.78-4.11-2.87-6.45-4.77-7.82 10.84-3.43 38.85 4.57 56.29 9.6l25.28 6.6c13.02 2.43 20.29 6.97 25.93 16.25l5.61 12.18c3.16 7.36 6.8 15.71 9.88 20.63 7.83 12.25 16.66 30.18 25.18 47.52 11.09 22.6 20.66 42.08 27.67 48.62m-483.02 155.74c.007-.27 0-.48.007-.74h.215c-.066.26-.137.47-.222.74m-52.168 69.66c-7.852-11.8-22.082-17.31-40.481-19.6 3.457 18.4.313 30.95-6.465 45.51-5.906 12.84-22.078 37.98-26.883 52.25a2693.28 2693.28 0 0 0-3.839 11.32c-25.614 18.63-53.758 41.32-67.879 60.02-3.352 4.43-8.379 20.22-18.262 52.73l-4.445 14.58-2.313 8.2c-6.515 23.92-11.652 36.91-15.234 38.62-2.473.58-4.746.88-6.946 1.05l.04-.04s-1.153-7.3-13.465-6.73c-2.883.14-5.274 1.08-7.137 2.15-1.066-.67-2.063-1.37-2.914-2.08l-1.024-.82a90.43 90.43 0 0 1-1.828-1.51c7.227-6.53 12.414-14.98 12.414-14.98s-2.734-7.51-12.128-9.17c-6.778-1.19-12.02 3.64-12.02 3.64s.074 2.34-.871 5.71c-2.852-5.51-4.192-11.9-2.727-19.41 9.551-4.92 17.774-13.82 17.774-13.82s-.215-7.03-10.039-11.98c-3.672-1.89-7.461-.79-9.922.38-1.219-7.26 2.832-17.5 10.39-24.42l26.536-21.94.593-1.29c8.418-19 18.332-36.85 24.102-43.37 2.168-2.49 10.043-15.92 31.992-53.68 29.102-50.11 73.106-125.81 84.414-138.41 4.367-4.07 34.367 2.93 63.977 14.74-10.559 29.28-1.367 47.18-5.41 72.35" style="fill:#f57c14;fill-opacity:1;fill-rule:nonzero;stroke:none" transform="matrix(.13333 0 0 -.13333 0 453.04)"/><path d="M1689.63 2636.39c-5.42 19.71-14.56 27.87-28.48 35.26-39.79 21.1-94.36 5.38-142.38-10.97-40.92-13.94-52.17-17.49-94.77-24-43.36-6.67-148.28-18.83-185.59 12-7.46 6.2-13.96 18.05-14.76 27.11-1.21 14.87 5.06 32.59 11.7 39.79 11.38 12.49 33.32 18.08 70.99 18.08 0 0 56.57-.89 87.84-1.37l6.56 5.93-6.41 6.89c-39.1 2.53-69.86 3.94-87.69 3.94-45.69 0-71.55-6.91-86.49-23.13-12.15-13.24-17.44-30.62-15.66-51.7 1.35-15.79 8.44-29.04 21.03-39.48 39.24-32.43 154.22-24.86 203.75-16.11 48.28 8.51 62.66 12.22 90.34 21.42l1.62.53c25.62 8.57 93.75 31.34 126.34 14.03 8.83-4.66 14.71-12.77 18.01-24.78 4.05-14.62 2.01-26.57-6.09-36.53-29.04-35.5-122.42-40.53-172.66-43.23l-1.09-.06-.86.24c-.29.04-29.4 7.19-67.54 7.42-24.24.12-44.77-1.43-66.46-3.07-40.67-3.06-82.68-6.25-152.6 1.74-31.08 3.55-60.39 9.24-83.33 15.78-1.43-9.39-5.16-20.01-9.81-33.82-4.81-14.26-20.96-39.42-26.9-52.26-6.77-14.54-9.94-27.09-6.48-45.49-18.41 2.29-32.63 7.79-40.48 19.59-5.51-34.52 13.99-55.28-27.03-110.66-4.11 16.77-27.113 22-25.078 40.98-7.231-19.71 4.351-31.16-12.094-63.8-4.148-8.22-27.148-42.15-39.629-52.04-5.039-23.49-13.914-63.12-23.094-95.74-12.472-44.49-22.667-64.64-27.597-72.7l-1.692-2.69-3.183-.19c-13.184-.66-44.246-1.82-54.09-1.37-13.664.66-24.375-1.44-31.457-5.97.656-3.41 1.016-8.21-1.043-11.75-2.461-4.24-5.891-6.08-7.695-6.8.3-.74.672-1.53 1.14-2.48 8.828 2.53 17.774 2.75 17.774 2.75s3.672-7.45-.145-16.46c-1.523-3.64-3.691-5.46-5.246-6.34.852-1.24 1.719-2.44 2.617-3.67 9.367 4.17 20.325 5.26 20.325 5.26s4.265-5.55 1.472-16.95c-.847-3.54-2.754-5.35-4.402-6.25 12.371-3.86 47.097 5.36 66.629 10.55l24.668 6.09c13.418 2.48 20.918 7.2 26.797 16.83 1.195 1.93 3.164 7.88 4.902 13.11 0 0 2.305 6.86 2.305 6.87 5.48 15.51 10.039 25.99 21.113 43.71 25.273 40.41 99.953 162.55 102.973 172.36.09.52.11 1.12.11 1.83 0 6.45-3.14 20.76-5.68 29.83l-1.61 5.78s241.79 70.73 255.84 74.8c-4.93 8.42-14.89 25.71-14.89 25.71l8.81 7.95c.78-.57 19.36-14.04 29.57-24.28 8.99-8.98 17.62-22.84 26.78-37.5l4.69-7.45c10.35-16.41 20.54-28.55 20.62-28.67l.43-.47.26-.47c.05-.12 8.16-14.19 33.49-42.36l64.02-70.09-.7-3.1c-.1-.33-7.65-32.93-21.01-69.21-8.71-23.93-21.78-49.43-26.92-59.32l-1.6-3.02-3.46-.18c-12.26-.69-42.03-2.28-52.97-1.79-13.55.64-24.1-1.44-30.97-6.04.92-3.19 1.81-8.11-.1-11.98-2.05-4.3-5.14-6.66-6.87-7.71.27-.57.56-1.16.87-1.77 7.99 2.66 15.71 3.45 15.71 3.45s3.86-6.32 2.61-14.34c-.91-5.38-3.69-7.81-5.78-8.9.8-1.1 1.57-2.13 2.39-3.2 9.61 4.64 21.62 5.84 21.62 5.84s4.04-5.58 2.65-14.2c-.64-3.98-3.34-6.68-5.47-8.24 12.43-1.48 37.33 5.68 53.34 10.31l25.12 6.55c12.97 2.41 20.26 6.97 25.94 16.25 2.44 4.03 16.23 35.77 21.43 48.45 15.19 37.2 37.55 84.29 52.07 109.46l8.06 12.69c4.73 7.09 8.83 13.19 8.46 17.37-.51 5.68-.78 5.84-5.98 8.46-6.05 3.06-15.15 7.69-28.18 23.03-20.9 24.58-20.2 71.55-19.57 112.99l.06 31.18c-1.08 40.96-7.72 68.3-13.09 84l-2.5 7.34 7.68.68c44.8 3.97 137.99 12.26 172.97 55.08 13.24 16.19 16.95 36.53 10.86 58.86" style="fill:#f57c14;fill-opacity:1;fill-rule:nonzero;stroke:none" transform="matrix(.13333 0 0 -.13333 0 453.04)"/><path d="M1447.34 3118.3c5.27-6.85 9.69-14.39 12.99-22.53-4.26-.54-8.56-.94-12.95-.94-4.42 0-8.71.35-12.97.92 3.3 8.14 7.68 15.68 12.93 22.55" style="fill:#fff;fill-opacity:1;fill-rule:nonzero;stroke:none" transform="matrix(.13333 0 0 -.13333 0 453.04)"/><path d="M1591.7 3187.18c.05 1.57.25 3.08.25 4.66 0 79.69-64.88 144.55-144.57 144.55-79.73 0-144.59-64.86-144.59-144.55l.21-4.69c-45.84-24.3-77.16-72.42-77.16-127.77 0-79.7 64.88-144.55 144.59-144.55 27.46 0 54 7.77 77.03 22.36 22.28-14.08 48.61-22.36 76.87-22.36 79.67 0 144.53 64.85 144.53 144.55 0 53.41-30.15 102.94-77.16 127.8zm-155.55-139.09 11.23-.8c3.77 0 7.46.29 11.15.57-1.5-11.65-5.23-22.78-11.13-32.91a89.296 89.296 0 0 0-11.25 33.14zm78.67 16.01c27.5 14.59 49.71 37.86 63.09 66.11 22.22-16.76 35.31-42.57 35.31-70.83 0-49.04-39.86-88.92-88.89-88.92-12.38 0-24.14 2.54-34.82 7.1 16.62 24.1 25.43 52.15 25.43 81.82zm-144.39 139.82c-3.79 0-7.56-.26-11.25-.57 5.6 44.08 42.73 77.42 88.2 77.42 45.19 0 82.56-33.93 88.08-77.66l-11.13.81c-27.36 0-53.81-7.69-76.83-22.16-22.5 14.17-48.95 22.16-77.07 22.16zm153.9-55.62.45-.01c-5.94-10.61-14.04-19.79-23.71-27.13-3.3 7.05-7.09 13.75-11.39 20.06 10.94 4.58 22.68 7.08 34.65 7.08zm-207.56-18.17c13.32-28.3 35.41-51.33 63.19-66.02-.06-1.57-.22-3.15-.22-4.73 0-30.31 9.46-58.47 25.45-81.74-10.94-4.65-22.77-7.18-34.76-7.18-49.03 0-88.93 39.88-88.93 88.92 0 28.86 13.89 54.49 35.27 70.75zm76.84-9.06a89.865 89.865 0 0 0-23.69 27.22c.13 0 .31.01.51.01 12.22 0 24.02-2.53 34.78-7.08-4.41-6.45-8.32-13.17-11.6-20.15" style="fill:#f57c14;fill-opacity:1;fill-rule:nonzero;stroke:none" transform="matrix(.13333 0 0 -.13333 0 453.04)"/><path d="M1474.8 3049.34c8.16 1.58 16.04 3.94 23.63 6.84-.48-25.98-8.57-50.51-23.51-71.53-6.51 4.35-12.38 9.57-17.58 15.42 9.96 14.76 15.94 31.54 17.46 49.27m-27.46 270.02c70.78 0 128.38-57.57 128.38-128.34 0-70.79-57.6-128.38-128.38-128.38l-11.78.86c.45 7.88 1.84 15.56 4.26 22.89l7.52-.48c57.95 0 105.12 47.16 105.12 105.11 0 57.94-47.17 105.11-105.12 105.11-55.2 0-99.84-41.57-104.55-95.75-8.18-1.57-16.06-3.95-23.69-6.84 1.35 69.61 58.34 125.82 128.24 125.82" style="fill:#fff;fill-opacity:1;fill-rule:nonzero;stroke:none" transform="matrix(.13333 0 0 -.13333 0 453.04)"/><path d="m1524.31 3186.93 11.68-.88c-.43-7.94-1.83-15.63-4.29-22.88l-7.39.48c-15.56 0-30.84-3.66-44.82-10.22-5.43 6.26-11.27 12.03-17.66 17.22 19.05 10.65 40.39 16.28 62.48 16.28m-153.9-256.75c-70.82 0-128.4 57.58-128.4 128.36 0 70.8 57.58 128.39 128.4 128.39 50.89 0 95.97-29.35 116.79-75.29-6.89-3.47-14.22-6.16-21.99-7.75-17.44 36.51-53.94 59.76-94.8 59.76-57.97 0-105.12-47.15-105.12-105.11 0-57.93 47.15-105.08 105.12-105.08 15.62 0 30.99 3.68 45 10.33 5.43-6.21 11.25-12.01 17.63-17.23-19.08-10.72-40.5-16.38-62.63-16.38" style="fill:#fff;fill-opacity:1;fill-rule:nonzero;stroke:none" transform="matrix(.13333 0 0 -.13333 0 453.04)"/><path d="M1352.57 3145.68c7.82-16.32 19.89-30.5 34.73-40.87-2.62-7.78-4.55-15.8-5.82-23.98-22.44 13.4-40.08 33.28-50.94 57.11 6.92 3.47 14.26 6.16 22.03 7.74m171.74-215.5c-70.84 0-128.4 57.58-128.4 128.36 0 26.97 8.21 52.42 23.72 74.17 6.48-4.32 12.36-9.53 17.53-15.44-11.71-17.37-17.96-37.52-17.96-58.73 0-57.93 47.12-105.08 105.11-105.08 57.93 0 105.08 47.15 105.08 105.08 0 34.85-16.89 66.47-45.23 86.15a147.76 147.76 0 0 1 5.82 24.07c38.4-22.97 62.67-65.02 62.67-110.22 0-70.78-57.6-128.36-128.34-128.36" style="fill:#fff;fill-opacity:1;fill-rule:nonzero;stroke:none" transform="matrix(.13333 0 0 -.13333 0 453.04)"/><path d="M1020.29 2676.15c7.59 5.27 25.75 20.31 16.05 38.62-10.29 19.29-33.91 11.42-40.93 8.55-.949 1-53.281 23.74-53.996 23.34.488.34-20.418-24.2-20.41-24.2-.008 0-20.828 24.54-20.371 24.2-.731.4-53.028-22.34-53.992-23.34-7.004 2.87-30.637 10.74-40.918-8.55-9.727-18.31 8.425-33.35 16.015-38.62a2.85 2.85 0 0 0-.168-.45l-16.855-29.87c.265.47 49.289-59.37 49.277-59.37.059.15-.086-38.5-.105-38.7 0 0 19.5-13.1 20.996-13.5 3.094-14.7 4.07-22.27 7.48-30.21 1.082-2.58 19.793-8.01 37.938-8.36h1.465c18.136.35 36.836 5.78 37.91 8.36 3.429 7.94 4.367 15.51 7.48 30.21 1.524.4 20.879 13.5 20.879 13.5.051-.04 0 38.6.051 38.7-.051 0 49.014 59.84 49.274 59.37.21-.36-16.84 29.87-16.84 29.87s-.09.15-.23.45" style="fill:#f57c14;fill-opacity:1;fill-rule:nonzero;stroke:none" transform="matrix(.13333 0 0 -.13333 0 453.04)"/><path d="m896.336 2673.68-1.621-25.52-43.906 25zm56.738-26.11c.215-1.98 6.973-61.02 6.973-61.02s-32.012-17.37-33.613-18.22c-.02-1.7-.196-20.33-.215-21.79 1.484-1.14 7.285-5.48 13.261-8 10.793-4.58 21.633-1.85 21.75-1.85l2.723.7-2.305-8.07-.984-.21c-.519-.09-12.676-2.31-22.617.68-8.625 2.62-13.125 5.94-14.309 6.91h-5.234c-1.172-.92-5.945-4.27-14.649-6.91-9.89-2.99-22.089-.77-22.597-.68l-.977.21-2.312 8.07 2.742-.7c.09-.04 10.918-2.73 21.758 1.85 5.969 2.52 11.769 6.86 13.203 8 0 1.46-.078 20.52-.078 22l-33.477 23.84s56.906.06 59.942.06v79.86l47.414.38 5.949.04s-40.637-24.14-42.348-25.15" style="fill:#173e7d;fill-opacity:1;fill-rule:nonzero;stroke:none" transform="matrix(.13333 0 0 -.13333 0 453.04)"/></svg>