<svg id="visual" viewBox="0 0 960 150" width="960" height="150" xmlns="http://www.w3.org/2000/svg" xmlns:xlink="http://www.w3.org/1999/xlink" version="1.1"><rect x="0" y="0" width="960" height="150" fill="#5f6d88"></rect><path d="M0 96L22.8 97.7C45.7 99.3 91.3 102.7 137 104.8C182.7 107 228.3 108 274 110.2C319.7 112.3 365.3 115.7 411.2 115.5C457 115.3 503 111.7 548.8 107.7C594.7 103.7 640.3 99.3 686 101.5C731.7 103.7 777.3 112.3 823 116.5C868.7 120.7 914.3 120.3 937.2 120.2L960 120L960 0L937.2 0C914.3 0 868.7 0 823 0C777.3 0 731.7 0 686 0C640.3 0 594.7 0 548.8 0C503 0 457 0 411.2 0C365.3 0 319.7 0 274 0C228.3 0 182.7 0 137 0C91.3 0 45.7 0 22.8 0L0 0Z" fill="#5f6d88"></path><path d="M0 78L22.8 78.2C45.7 78.3 91.3 78.7 137 79.7C182.7 80.7 228.3 82.3 274 85.8C319.7 89.3 365.3 94.7 411.2 97.5C457 100.3 503 100.7 548.8 96.5C594.7 92.3 640.3 83.7 686 79.8C731.7 76 777.3 77 823 76.5C868.7 76 914.3 74 937.2 73L960 72L960 0L937.2 0C914.3 0 868.7 0 823 0C777.3 0 731.7 0 686 0C640.3 0 594.7 0 548.8 0C503 0 457 0 411.2 0C365.3 0 319.7 0 274 0C228.3 0 182.7 0 137 0C91.3 0 45.7 0 22.8 0L0 0Z" fill="#515d74"></path><path d="M0 68L22.8 66.2C45.7 64.3 91.3 60.7 137 56.5C182.7 52.3 228.3 47.7 274 48.3C319.7 49 365.3 55 411.2 60.5C457 66 503 71 548.8 71.2C594.7 71.3 640.3 66.7 686 65.2C731.7 63.7 777.3 65.3 823 63.7C868.7 62 914.3 57 937.2 54.5L960 52L960 0L937.2 0C914.3 0 868.7 0 823 0C777.3 0 731.7 0 686 0C640.3 0 594.7 0 548.8 0C503 0 457 0 411.2 0C365.3 0 319.7 0 274 0C228.3 0 182.7 0 137 0C91.3 0 45.7 0 22.8 0L0 0Z" fill="#444d61"></path><path d="M0 34L22.8 37.8C45.7 41.7 91.3 49.3 137 48.7C182.7 48 228.3 39 274 36.3C319.7 33.7 365.3 37.3 411.2 39C457 40.7 503 40.3 548.8 40.5C594.7 40.7 640.3 41.3 686 39.3C731.7 37.3 777.3 32.7 823 31.8C868.7 31 914.3 34 937.2 35.5L960 37L960 0L937.2 0C914.3 0 868.7 0 823 0C777.3 0 731.7 0 686 0C640.3 0 594.7 0 548.8 0C503 0 457 0 411.2 0C365.3 0 319.7 0 274 0C228.3 0 182.7 0 137 0C91.3 0 45.7 0 22.8 0L0 0Z" fill="#373e4e"></path><path d="M0 14L22.8 14C45.7 14 91.3 14 137 16.2C182.7 18.3 228.3 22.7 274 22.5C319.7 22.3 365.3 17.7 411.2 17.5C457 17.3 503 21.7 548.8 23C594.7 24.3 640.3 22.7 686 24.2C731.7 25.7 777.3 30.3 823 29.5C868.7 28.7 914.3 22.3 937.2 19.2L960 16L960 0L937.2 0C914.3 0 868.7 0 823 0C777.3 0 731.7 0 686 0C640.3 0 594.7 0 548.8 0C503 0 457 0 411.2 0C365.3 0 319.7 0 274 0C228.3 0 182.7 0 137 0C91.3 0 45.7 0 22.8 0L0 0Z" fill="#2a303c"></path></svg>