<svg xmlns="http://www.w3.org/2000/svg" width="960" height="150"><path fill="#5f6d88" d="M0 0h960v150H0z"/><path fill="#5f6d88" d="m0 96 22.8 1.7c22.9 1.6 68.5 5 114.2 7.1 45.7 2.2 91.3 3.2 137 5.4 45.7 2.1 91.3 5.5 137.2 5.3 45.8-.2 91.8-3.8 137.6-7.8 45.9-4 91.5-8.4 137.2-6.2 45.7 2.2 91.3 10.8 137 15 45.7 4.2 91.3 3.8 114.2 3.7l22.8-.2V0H0Z"/><path fill="#515d74" d="m0 78 22.8.2c22.9.1 68.5.5 114.2 1.5s91.3 2.6 137 6.1c45.7 3.5 91.3 8.9 137.2 11.7 45.8 2.8 91.8 3.2 137.6-1 45.9-4.2 91.5-12.8 137.2-16.7 45.7-3.8 91.3-2.8 137-3.3S914.3 74 937.2 73l22.8-1V0H0Z"/><path fill="#444d61" d="m0 68 22.8-1.8c22.9-1.9 68.5-5.5 114.2-9.7 45.7-4.2 91.3-8.8 137-8.2 45.7.7 91.3 6.7 137.2 12.2C457 66 503 71 548.8 71.2c45.9.1 91.5-4.5 137.2-6 45.7-1.5 91.3.1 137-1.5 45.7-1.7 91.3-6.7 114.2-9.2L960 52V0H0Z"/><path fill="#373e4e" d="m0 34 22.8 3.8C45.7 41.7 91.3 49.3 137 48.7c45.7-.7 91.3-9.7 137-12.4 45.7-2.6 91.3 1 137.2 2.7 45.8 1.7 91.8 1.3 137.6 1.5 45.9.2 91.5.8 137.2-1.2 45.7-2 91.3-6.6 137-7.5 45.7-.8 91.3 2.2 114.2 3.7L960 37V0H0Z"/><path fill="#2a303c" d="M0 14h22.8c22.9 0 68.5 0 114.2 2.2 45.7 2.1 91.3 6.5 137 6.3 45.7-.2 91.3-4.8 137.2-5 45.8-.2 91.8 4.2 137.6 5.5 45.9 1.3 91.5-.3 137.2 1.2 45.7 1.5 91.3 6.1 137 5.3 45.7-.8 91.3-7.2 114.2-10.3L960 16V0H0Z"/></svg>