<svg xmlns="http://www.w3.org/2000/svg" width="24" height="24" data-name="Layer 21"><path d="m9.87 5.541 4.27 4.27a2.021 2.021 0 0 1 0 2.855l-1.424 1.422 1.414 1.415 1.424-1.423a4.024 4.024 0 0 0 0-5.684l-4.27-4.269a4.019 4.019 0 0 0-5.683 0L4.177 5.55a4.022 4.022 0 0 0 0 5.683L5.59 9.82a2.021 2.021 0 0 1 0-2.855l1.424-1.423a2.068 2.068 0 0 1 2.855 0Z"/><path d="M19.823 12.666 18.41 14.08a2.021 2.021 0 0 1 0 2.855l-1.424 1.423a2.068 2.068 0 0 1-2.855 0l-4.27-4.27a2.021 2.021 0 0 1 0-2.854l1.424-1.423L9.87 8.396 8.446 9.819a4.024 4.024 0 0 0 0 5.684l4.27 4.27a4.02 4.02 0 0 0 5.683 0l1.424-1.423a4.024 4.024 0 0 0 0-5.684Z"/></svg>