<svg xmlns="http://www.w3.org/2000/svg" width="960" height="150"><path fill="#2a303c" d="M0 0h960v150H0z"/><path fill="#5f6d88" d="m0 80 10.7 2.3c10.6 2.4 32 7 53.3 9 21.3 2 42.7 1.4 64 .9 21.3-.5 42.7-.9 64-6.7 21.3-5.8 42.7-17.2 64-19.2 21.3-2 42.7 5.4 64 5.5 21.3.2 42.7-6.8 64-7.1 21.3-.4 42.7 6 64 11 21.3 5 42.7 8.6 64 10.1 21.3 1.5 42.7.9 64-4.1 21.3-5 42.7-14.4 64-15.7 21.3-1.3 42.7 5.3 64 8.8 21.3 3.5 42.7 3.9 64 .9 21.3-3 42.7-9.4 64-8.2 21.3 1.2 42.7 9.8 64 14.2 21.3 4.3 42.7 4.3 53.3 4.3H960V0H0Z"/></svg>